<svg width="14" height="14" viewBox="0 0 14 14" fill="none" xmlns="http://www.w3.org/2000/svg">
<path d="M12.6922 1.09804H10.7957V0.411765C10.7957 0.302558 10.7496 0.197824 10.6675 0.120603C10.5854 0.0433822 10.4741 0 10.358 0C10.242 0 10.1306 0.0433822 10.0486 0.120603C9.96648 0.197824 9.92037 0.302558 9.92037 0.411765V1.09804H3.79308V0.411765C3.79308 0.302558 3.74697 0.197824 3.66489 0.120603C3.58282 0.0433822 3.47149 0 3.35542 0C3.23934 0 3.12802 0.0433822 3.04594 0.120603C2.96387 0.197824 2.91776 0.302558 2.91776 0.411765V1.09804H1.02121C0.750465 1.09832 0.490891 1.19964 0.299442 1.37976C0.107993 1.55988 0.000303502 1.8041 0 2.05882V13.0392C0.000303502 13.2939 0.107993 13.5382 0.299442 13.7183C0.490891 13.8984 0.750465 13.9997 1.02121 14H12.6922C12.963 13.9997 13.2226 13.8984 13.414 13.7183C13.6055 13.5382 13.7131 13.2939 13.7135 13.0392V2.05882C13.7131 1.8041 13.6055 1.55988 13.414 1.37976C13.2226 1.19964 12.963 1.09832 12.6922 1.09804ZM1.02121 1.92157H2.91776V2.60784C2.91776 2.71705 2.96387 2.82178 3.04594 2.899C3.12802 2.97623 3.23934 3.01961 3.35542 3.01961C3.47149 3.01961 3.58282 2.97623 3.66489 2.899C3.74697 2.82178 3.79308 2.71705 3.79308 2.60784V1.92157H9.92037V2.60784C9.92037 2.71705 9.96648 2.82178 10.0486 2.899C10.1306 2.97623 10.242 3.01961 10.358 3.01961C10.4741 3.01961 10.5854 2.97623 10.6675 2.899C10.7496 2.82178 10.7957 2.71705 10.7957 2.60784V1.92157H12.6922C12.7309 1.92162 12.768 1.93609 12.7953 1.96182C12.8227 1.98755 12.8381 2.02244 12.8381 2.05882V4.39216H0.875327V2.05882C0.875377 2.02244 0.890763 1.98755 0.918112 1.96182C0.94546 1.93609 0.982538 1.92162 1.02121 1.92157ZM12.6922 13.1765H1.02121C0.982538 13.1764 0.94546 13.1619 0.918112 13.1362C0.890763 13.1105 0.875377 13.0756 0.875327 13.0392V5.21569H12.8381V13.0392C12.8381 13.0756 12.8227 13.1105 12.7953 13.1362C12.768 13.1619 12.7309 13.1764 12.6922 13.1765ZM6.71084 10.0194C6.71084 10.3179 6.61677 10.6098 6.44053 10.858C6.26428 11.1063 6.01376 11.2998 5.72064 11.4141C5.42752 11.5284 5.10495 11.5584 4.79371 11.5003C4.48247 11.4422 4.19653 11.2986 3.97202 11.0876C3.8899 11.0104 3.84372 10.9057 3.84365 10.7965C3.84359 10.6873 3.88964 10.5826 3.97167 10.5053C4.0537 10.428 4.16499 10.3846 4.28107 10.3845C4.39715 10.3845 4.5085 10.4278 4.59062 10.505C4.67548 10.5847 4.77993 10.6435 4.89472 10.6762C5.00951 10.7089 5.1311 10.7145 5.24872 10.6924C5.36635 10.6703 5.47637 10.6213 5.56905 10.5497C5.66173 10.4781 5.73421 10.3861 5.78008 10.2818C5.82594 10.1776 5.84377 10.0643 5.83198 9.95197C5.8202 9.83967 5.77916 9.73185 5.71251 9.63803C5.64586 9.54422 5.55565 9.46732 5.44987 9.41414C5.3441 9.36095 5.22601 9.33313 5.10607 9.33313C5.02363 9.33314 4.94286 9.31123 4.87308 9.26994C4.80329 9.22865 4.74731 9.16965 4.7116 9.09975C4.67589 9.02984 4.66189 8.95186 4.67122 8.8748C4.68055 8.79773 4.71282 8.72471 4.76433 8.66415L5.36255 7.96058H4.23075C4.11467 7.96058 4.00335 7.9172 3.92127 7.83998C3.83919 7.76276 3.79308 7.65803 3.79308 7.54882C3.79308 7.43961 3.83919 7.33488 3.92127 7.25766C4.00335 7.18044 4.11467 7.13705 4.23075 7.13705H6.27317C6.35562 7.13705 6.43638 7.15896 6.50617 7.20025C6.57596 7.24154 6.63193 7.30053 6.66764 7.37044C6.70336 7.44035 6.71735 7.51832 6.70803 7.59539C6.6987 7.67245 6.66642 7.74547 6.61492 7.80603L5.86418 8.68894C6.11989 8.81807 6.33364 9.00996 6.48272 9.24422C6.63179 9.47848 6.71062 9.74637 6.71084 10.0194ZM9.62859 7.54882V11.1174C9.62859 11.2267 9.58248 11.3314 9.50041 11.4086C9.41833 11.4858 9.30701 11.5292 9.19093 11.5292C9.07485 11.5292 8.96353 11.4858 8.88145 11.4086C8.79938 11.3314 8.75327 11.2267 8.75327 11.1174V8.37235L8.28643 8.70175C8.19358 8.76727 8.07686 8.79541 7.96195 8.77997C7.84704 8.76453 7.74336 8.70678 7.67371 8.61941C7.60406 8.53205 7.57416 8.42224 7.59057 8.31413C7.60698 8.20602 7.66837 8.10848 7.76122 8.04295L8.92832 7.21942C8.99335 7.17354 9.07067 7.1456 9.15162 7.13873C9.23257 7.13186 9.31395 7.14634 9.38665 7.18053C9.45935 7.21473 9.52049 7.2673 9.56322 7.33235C9.60595 7.39739 9.62859 7.47235 9.62859 7.54882Z" fill="#949292"/>
</svg>
