<svg width="25" height="25" viewBox="0 0 25 25" fill="none" xmlns="http://www.w3.org/2000/svg">
<path d="M4.453 0.146923C3.13812 0.979433 0.250589 2.99941 0.0479533 4.8068C-0.889557 12.8645 12.1356 25.8897 20.1906 24.9521C22.0131 24.7497 24.0257 21.8648 24.8531 20.5473C24.9684 20.3647 25.0181 20.1484 24.994 19.934C24.97 19.7195 24.8735 19.5196 24.7206 19.3672L21.1082 15.7497C20.9292 15.5694 20.6858 15.4679 20.4319 15.4679C20.178 15.4679 19.9345 15.5694 19.7556 15.7497L17.7232 17.8073C17.4956 18.0349 17.3182 18.2048 17.1831 18.3073C15.488 18.4873 12.3232 17.4772 9.90798 15.0572C7.49287 12.6372 6.48544 9.47722 6.6579 7.77943C6.77788 7.64445 6.94285 7.46937 7.17041 7.24197L9.23552 5.2494C9.41531 5.07013 9.51629 4.82686 9.51629 4.57314C9.51629 4.31942 9.41532 4.07595 9.23552 3.89688L5.63543 0.281791C5.48319 0.127981 5.283 0.0306715 5.06797 0.00608188C4.85295 -0.0183327 4.63601 0.0311938 4.45292 0.146811L4.453 0.146923Z" fill="#F2F2F2"/>
</svg>
