<svg width="16" height="16" viewBox="0 0 16 16" fill="none" xmlns="http://www.w3.org/2000/svg">
<path fill-rule="evenodd" clip-rule="evenodd" d="M8.61743 0.210037C8.85192 0.0724853 9.11857 0 9.39009 0C9.66162 0 9.92827 0.0724853 10.1628 0.210037L10.1675 0.212774L14.9056 3.13864C15.1391 3.27594 15.3327 3.47223 15.4672 3.70798C15.6017 3.94374 15.6725 4.21075 15.6725 4.48251V9.62534C15.6725 10.1796 15.3783 10.6928 14.9009 10.972L14.8995 10.9726L6.75133 15.7877L6.74861 15.7898C6.51232 15.9275 6.244 16 5.97084 16C5.69767 16 5.42936 15.9275 5.19307 15.7898L5.17536 15.7795L0.74644 12.699C0.518541 12.5608 0.330059 12.3658 0.199277 12.1328C0.0684938 11.8999 -0.000151063 11.6369 2.49611e-07 11.3695V6.20135C2.49611e-07 5.93312 0.0681061 5.67447 0.193421 5.44867L0.195464 5.44456L0.204999 5.42677C0.339258 5.19276 0.531691 4.99777 0.763467 4.8609H0.764829L8.61743 0.209353V0.210037ZM9.13299 1.09614H9.13231L1.46359 5.63889L5.71885 8.54491C5.7983 8.58822 5.88747 8.61033 5.97786 8.60913C6.06824 8.60793 6.15681 8.58347 6.23509 8.53807H6.23577L14.1585 3.88242L9.64379 1.09477C9.56596 1.05004 9.47778 1.02669 9.38812 1.02705C9.29845 1.02741 9.21046 1.05147 9.13299 1.09683V1.09614ZM11.9192 6.38678L9.70576 7.68686V12.8516L11.9192 11.5433V6.38678ZM12.9408 5.78601V10.9398L14.3874 10.0845C14.4674 10.0378 14.5339 9.97083 14.5801 9.89026C14.6264 9.8097 14.6508 9.71835 14.6509 9.62534V4.78152L12.9408 5.78601ZM6.74997 9.42349L8.68418 8.28763V13.4551L6.48231 14.7565V9.54802C6.57358 9.51586 6.66279 9.47481 6.74861 9.42486L6.74997 9.42349ZM5.46073 14.7292V9.54871C5.36782 9.51627 5.2782 9.47503 5.19307 9.42554L5.17741 9.41596L1.02159 6.57837V11.3702C1.02159 11.5584 1.12034 11.7315 1.27971 11.8245L1.29674 11.8341L5.46073 14.7299V14.7292Z" fill="#949292"/>
</svg>
