<svg width="16" height="17" viewBox="0 0 16 17" fill="none" xmlns="http://www.w3.org/2000/svg">
<mask id="path-1-outside-1_57_5395" maskUnits="userSpaceOnUse" x="-0.90723" y="-0.907107" width="17.1361" height="18.1441" fill="black">
<rect fill="white" x="-0.90723" y="-0.907107" width="17.1361" height="18.1441"/>
<path d="M0.101188 7.67236C0.247908 7.22424 0.554537 7.07865 0.985631 7.08303C2.41986 7.09658 3.85451 7.08827 5.28915 7.08827C5.35015 7.08827 5.41156 7.08827 5.49563 7.08827C5.41733 6.73021 5.34232 6.38832 5.26731 6.04644C5.01385 4.89356 4.75997 3.74068 4.50692 2.58736C4.44798 2.31892 4.53783 2.20525 4.81025 2.20525C6.22923 2.20438 7.64863 2.20481 9.06761 2.20481C9.12778 2.20481 9.18796 2.20481 9.26379 2.20481C9.26379 1.93244 9.26379 1.67712 9.26379 1.4218C9.26379 1.08297 9.26255 0.744149 9.2642 0.405324C9.26544 0.195471 9.34869 0.103223 9.54569 0.103223C11.2577 0.101911 12.9701 0.0975392 14.6821 0.105846C15.3073 0.108906 15.7949 0.583699 15.8872 1.24124C15.9717 1.84457 15.6016 2.44702 15.0287 2.64769C14.9822 2.66387 14.9142 2.71939 14.9138 2.75743C14.9059 3.26982 14.9088 3.78221 14.9088 4.2981C14.997 4.31471 15.0749 4.31952 15.1466 4.34488C15.4129 4.43844 15.5806 4.6308 15.6255 4.92853C15.6717 5.23326 15.5666 5.4759 15.3333 5.65384C15.2459 5.72029 15.1528 5.78281 15.0547 5.82741C14.9302 5.88337 14.8919 5.9708 14.9063 6.10765C14.9171 6.20951 14.9084 6.314 14.9084 6.42024C14.9978 6.43904 15.0807 6.44603 15.1565 6.47358C15.4219 6.57107 15.5864 6.76693 15.6272 7.0651C15.6684 7.36283 15.5653 7.60198 15.3366 7.77554C15.2365 7.85118 15.1285 7.91675 15.0184 7.97534C14.9344 8.02037 14.8981 8.07633 14.9059 8.17863C14.9154 8.29755 14.908 8.41822 14.908 8.54763C14.9673 8.55812 15.0217 8.56468 15.0745 8.57736C15.3609 8.64687 15.5522 8.82699 15.6181 9.13478C15.6853 9.45043 15.5794 9.70619 15.3407 9.89637C15.2344 9.98119 15.1079 10.0367 15.0003 10.1198C14.9562 10.1543 14.9183 10.2247 14.9121 10.2824C14.8989 10.4114 14.908 10.5425 14.908 10.6711C15.0085 10.6942 15.1017 10.703 15.1858 10.7371C15.4417 10.842 15.5963 11.0418 15.63 11.3339C15.6626 11.6176 15.5658 11.8511 15.349 12.0185C15.2373 12.1046 15.1075 12.1645 14.9945 12.2489C14.9529 12.28 14.922 12.3451 14.9117 12.4002C14.8977 12.4736 14.9006 12.5536 14.9092 12.6288C15.0151 13.512 14.6764 14.2985 14.4274 15.1025C14.4039 15.1777 14.2869 15.266 14.2135 15.2656C14.1402 15.2651 14.0256 15.1772 14.0001 15.1007C13.8323 14.5971 13.6732 14.0891 13.5356 13.5754C13.4939 13.4197 13.529 13.2409 13.529 13.0687C13.4437 13.0555 13.3769 13.0533 13.3151 13.0337C13.0348 12.9458 12.8535 12.7561 12.8024 12.4435C12.7509 12.1278 12.8749 11.8891 13.1074 11.7081C13.2022 11.6342 13.3064 11.5721 13.4123 11.517C13.4993 11.472 13.529 11.4108 13.5224 11.3107C13.5146 11.1913 13.5207 11.0715 13.5207 10.9435C13.4795 10.936 13.4457 10.9277 13.4115 10.9238C13.1214 10.8888 12.884 10.6763 12.8139 10.3878C12.7397 10.0831 12.8457 9.77483 13.0868 9.5934C13.116 9.57153 13.1457 9.54618 13.1787 9.53394C13.5051 9.41589 13.5937 9.17106 13.4977 8.81781C13.4783 8.81344 13.4404 8.80339 13.402 8.79726C13.0905 8.74874 12.8671 8.53232 12.8069 8.21973C12.7463 7.90408 12.8675 7.61247 13.1337 7.43584C13.1511 7.42447 13.168 7.40961 13.1869 7.40305C13.5269 7.28894 13.5764 7.02444 13.5022 6.69349C13.4276 6.67687 13.3398 6.66769 13.2599 6.63709C12.9949 6.5361 12.8358 6.33368 12.7983 6.03682C12.7624 5.75264 12.8654 5.52443 13.0756 5.34955C13.0999 5.32944 13.1255 5.30714 13.1539 5.29753C13.4853 5.18648 13.5451 4.93815 13.5282 4.59627C13.5005 4.02923 13.5207 3.46 13.5207 2.89165C13.5207 2.83263 13.5207 2.77404 13.5207 2.70628C12.912 2.70628 12.3181 2.70628 11.7036 2.70628C11.7036 2.77054 11.7036 2.82825 11.7036 2.8864C11.7036 3.3507 11.7045 3.81544 11.7032 4.27974C11.7028 4.47079 11.6146 4.58446 11.4732 4.58446C11.3327 4.58402 11.242 4.46861 11.2416 4.27843C11.24 3.69914 11.2404 3.11986 11.2412 2.54058C11.2416 2.29225 11.322 2.20525 11.5573 2.20525C12.5856 2.20394 13.6139 2.20656 14.6422 2.20394C15.0885 2.20307 15.4232 1.86774 15.4326 1.42267C15.4421 0.961435 15.1046 0.599438 14.6504 0.595066C14.1262 0.590257 13.6015 0.593755 13.0769 0.593755C12.028 0.593755 10.9791 0.593755 9.93021 0.593755C9.86922 0.593755 9.80863 0.593755 9.73733 0.593755C9.73733 2.76136 9.73733 4.91586 9.73733 7.07909C10.234 7.07909 10.7252 7.07909 11.2404 7.07909C11.2404 7.02138 11.2404 6.96367 11.2404 6.9064C11.2404 6.43073 11.2383 5.9555 11.2416 5.48027C11.2429 5.31239 11.336 5.21096 11.4716 5.21009C11.6093 5.20921 11.6966 5.30933 11.7024 5.47721C11.704 5.52093 11.7028 5.56465 11.7028 5.60837C11.7028 6.77786 11.7028 7.94736 11.7028 9.11685C11.7028 9.80543 11.7032 10.494 11.7028 11.1826C11.7024 11.7313 11.432 12.0181 10.9119 12.0194C10.3259 12.0207 9.73981 12.0198 9.15334 12.0198C9.09193 12.0198 9.03052 12.0198 8.95469 12.0198C8.95469 12.2332 8.95469 12.4369 8.95469 12.6603C9.00497 12.6629 9.05937 12.6669 9.11377 12.6677C9.47356 12.6734 9.8346 12.6594 10.1927 12.6865C11.0158 12.7491 11.6822 13.5102 11.7007 14.3859C11.7201 15.3005 11.1073 16.0857 10.2772 16.199C10.0947 16.2239 9.90837 16.2252 9.72373 16.2256C8.99343 16.2287 8.26354 16.2274 7.53323 16.2256C7.47265 16.2256 7.39146 16.2335 7.35601 16.1976C7.29213 16.1334 7.22289 16.0416 7.21465 15.955C7.20352 15.8387 7.28801 15.7556 7.40588 15.739C7.45657 15.7316 7.5085 15.7351 7.56002 15.7351C8.3777 15.7347 9.19496 15.7399 10.0126 15.7333C10.7359 15.7277 11.2655 15.1322 11.2379 14.3715C11.2161 13.7743 10.752 13.244 10.1927 13.1784C10.1161 13.1692 10.039 13.1635 9.96195 13.1635C7.93094 13.1626 5.89994 13.1622 3.86893 13.1635C3.2598 13.164 2.7846 13.5242 2.63211 14.093C2.4108 14.918 2.9849 15.7242 3.81041 15.7329C4.62767 15.7412 5.44535 15.7347 6.26303 15.7351C6.31455 15.7351 6.36647 15.7316 6.41717 15.739C6.53298 15.7561 6.60304 15.8287 6.61417 15.9537C6.6253 16.0779 6.57337 16.167 6.46168 16.2068C6.41428 16.2234 6.36112 16.2265 6.31042 16.2265C5.48244 16.2278 4.65488 16.2335 3.82689 16.2256C2.53938 16.2138 1.72541 14.8244 2.31436 13.6344C2.6383 12.9795 3.17366 12.6739 3.8644 12.6686C4.19782 12.666 4.53123 12.6682 4.87496 12.6682C4.87496 12.4513 4.87496 12.2467 4.87496 12.0198C4.8119 12.0198 4.75255 12.0198 4.69279 12.0198C3.45886 12.0198 2.22451 12.0098 0.990989 12.0251C0.561544 12.0303 0.253266 11.8869 0.100776 11.4436C0.101188 10.1862 0.101188 8.9293 0.101188 7.67236ZM9.72703 7.58799C9.72703 7.66712 9.72703 7.72701 9.72703 7.78691C9.72703 8.6613 9.72703 9.53568 9.72703 10.4096C9.72703 10.6995 9.6615 10.7721 9.39402 10.7721C8.63322 10.7729 7.87242 10.7729 7.1112 10.7721C6.84167 10.7716 6.77531 10.6999 6.77531 10.4101C6.7749 9.53568 6.77531 8.6613 6.77531 7.78735C6.77531 7.72395 6.77531 7.66012 6.77531 7.57924C6.69948 7.57924 6.64425 7.57924 6.58862 7.57924C4.6965 7.57924 2.8048 7.57924 0.912683 7.57968C0.861579 7.57968 0.808825 7.57618 0.758957 7.58711C0.646444 7.61203 0.575144 7.68723 0.566489 7.81095C0.559071 7.91807 0.564841 8.02649 0.564841 8.1524C0.639025 8.1524 0.699609 8.1524 0.759781 8.1524C1.65947 8.1524 2.55917 8.15197 3.45886 8.1524C4.00535 8.15284 4.32269 8.48773 4.32393 9.06439C4.32475 9.39229 4.32475 9.72018 4.32393 10.0481C4.32228 10.6142 4.00205 10.9535 3.46792 10.9539C2.55793 10.9548 1.64793 10.9544 0.737938 10.9544C0.683536 10.9544 0.628722 10.9544 0.563604 10.9544C0.563604 11.0409 0.563604 11.1056 0.563604 11.1708C0.564016 11.4537 0.632019 11.5262 0.903204 11.5262C4.23985 11.5267 7.57651 11.5267 10.9132 11.5262C11.1736 11.5262 11.2404 11.4532 11.2404 11.176C11.2408 10.0341 11.2408 8.8917 11.24 7.74975C11.24 7.69728 11.2346 7.64482 11.2313 7.58755C10.7277 7.58799 10.2368 7.58799 9.72703 7.58799ZM5.96918 7.07516C7.07329 7.07516 8.16421 7.07516 9.25472 7.07516C9.25472 5.61274 9.25472 4.16301 9.25472 2.70715C7.83697 2.70715 6.42829 2.70715 5.00643 2.70715C5.32872 4.16956 5.64771 5.61755 5.96918 7.07516ZM7.24927 7.58886C7.24927 8.49035 7.24927 9.37742 7.24927 10.268C7.92558 10.268 8.59036 10.268 9.25266 10.268C9.25266 9.80937 9.25266 9.36387 9.25266 8.90962C9.0569 8.90962 8.87144 8.91662 8.68721 8.90613C8.61467 8.90219 8.51906 8.88208 8.47949 8.83005C8.43251 8.76885 8.39954 8.64906 8.4255 8.58435C8.45477 8.51178 8.55368 8.43439 8.62828 8.42696C8.83517 8.40554 9.04536 8.41953 9.25555 8.41953C9.25555 8.12879 9.25555 7.86298 9.25555 7.58886C8.58624 7.58886 7.92517 7.58886 7.24927 7.58886ZM0.571435 10.4555C0.60523 10.459 0.625013 10.463 0.645207 10.463C1.60054 10.4634 2.55587 10.4643 3.5112 10.4625C3.73705 10.4621 3.85822 10.3283 3.86069 10.0813C3.86399 9.75384 3.86193 9.42639 3.86151 9.09849C3.8611 8.75442 3.76013 8.64512 3.4399 8.64512C2.53567 8.64468 1.63186 8.64468 0.727634 8.64512C0.677766 8.64512 0.627898 8.64993 0.571023 8.65299C0.571435 9.25632 0.571435 9.84915 0.571435 10.4555ZM8.4696 12.029C7.4269 12.029 6.39656 12.029 5.35839 12.029C5.35839 12.2432 5.35839 12.447 5.35839 12.6586C6.39903 12.6586 7.42937 12.6586 8.4696 12.6586C8.4696 12.4496 8.4696 12.2493 8.4696 12.029ZM14.9739 6.90421C14.8919 6.9405 14.8326 6.9593 14.7802 6.99122C14.3265 7.26752 13.8735 7.54558 13.421 7.82494C13.2615 7.92331 13.2137 8.05272 13.2817 8.18563C13.3514 8.3216 13.4923 8.34608 13.6555 8.2464C14.1043 7.97184 14.5527 7.69641 15.0011 7.42054C15.0366 7.39868 15.0889 7.37988 15.0996 7.34709C15.1281 7.26096 15.1685 7.15866 15.147 7.0804C15.1277 7.00914 15.0333 6.96061 14.9739 6.90421ZM13.4482 10.4621C13.5442 10.4193 13.6131 10.3974 13.6736 10.3607C14.1146 10.0927 14.554 9.82248 14.9929 9.55186C15.037 9.52475 15.1021 9.49721 15.1128 9.45655C15.1367 9.36518 15.1685 9.24189 15.1297 9.17587C15.091 9.10986 14.9418 9.04034 14.8907 9.07007C14.3644 9.3748 13.8451 9.69439 13.3328 10.0262C13.2817 10.0594 13.2619 10.2055 13.2809 10.2846C13.2982 10.3541 13.3897 10.4035 13.4482 10.4621ZM13.2211 5.92053C13.2702 6.00534 13.2949 6.10327 13.3501 6.13038C13.4231 6.16623 13.5393 6.18284 13.6044 6.14481C14.0895 5.86107 14.5676 5.56378 15.0456 5.26649C15.173 5.18735 15.2084 5.05051 15.1483 4.93116C15.0856 4.80699 14.948 4.7659 14.8157 4.8459C14.3388 5.13445 13.8628 5.42475 13.3905 5.7216C13.3258 5.76183 13.285 5.84358 13.2211 5.92053ZM15.1759 11.4742C15.1788 11.2351 14.9892 11.1188 14.8214 11.2193C14.3392 11.5087 13.8603 11.8047 13.3823 12.102C13.2553 12.1811 13.2203 12.318 13.2809 12.4378C13.3439 12.5615 13.482 12.6026 13.6147 12.5222C14.0915 12.2332 14.5676 11.9429 15.039 11.6447C15.1058 11.6023 15.1462 11.5122 15.1759 11.4742ZM13.9951 2.70453C13.9951 3.40185 13.9951 4.0795 13.9951 4.77901C14.122 4.70119 14.2296 4.62818 14.3434 4.56829C14.4233 4.52588 14.4489 4.46992 14.4476 4.37636C14.4431 3.95621 14.4456 3.53607 14.4456 3.11593C14.4456 2.98127 14.4456 2.84662 14.4456 2.70453C14.2852 2.70453 14.1439 2.70453 13.9951 2.70453ZM14.4307 12.5912C14.2906 12.6765 14.1579 12.7552 14.0281 12.8391C14.0066 12.8531 13.9889 12.889 13.986 12.9165C13.9391 13.3638 14.047 13.7795 14.2111 14.1848C14.4534 13.682 14.4814 13.1522 14.4307 12.5912ZM14.439 10.4796C14.0079 10.6553 13.9222 10.7887 14.0083 11.1376C14.4571 10.9242 14.4625 10.9159 14.439 10.4796ZM13.998 9.00493C14.4085 8.86197 14.4996 8.72382 14.4246 8.35788C13.993 8.54282 13.9465 8.61321 13.998 9.00493ZM13.9955 6.89154C14.4443 6.67381 14.5148 6.56189 14.4184 6.23312C13.9761 6.44341 13.9551 6.47576 13.9955 6.89154Z"/>
</mask>
<path d="M0.101188 7.67236C0.247908 7.22424 0.554537 7.07865 0.985631 7.08303C2.41986 7.09658 3.85451 7.08827 5.28915 7.08827C5.35015 7.08827 5.41156 7.08827 5.49563 7.08827C5.41733 6.73021 5.34232 6.38832 5.26731 6.04644C5.01385 4.89356 4.75997 3.74068 4.50692 2.58736C4.44798 2.31892 4.53783 2.20525 4.81025 2.20525C6.22923 2.20438 7.64863 2.20481 9.06761 2.20481C9.12778 2.20481 9.18796 2.20481 9.26379 2.20481C9.26379 1.93244 9.26379 1.67712 9.26379 1.4218C9.26379 1.08297 9.26255 0.744149 9.2642 0.405324C9.26544 0.195471 9.34869 0.103223 9.54569 0.103223C11.2577 0.101911 12.9701 0.0975392 14.6821 0.105846C15.3073 0.108906 15.7949 0.583699 15.8872 1.24124C15.9717 1.84457 15.6016 2.44702 15.0287 2.64769C14.9822 2.66387 14.9142 2.71939 14.9138 2.75743C14.9059 3.26982 14.9088 3.78221 14.9088 4.2981C14.997 4.31471 15.0749 4.31952 15.1466 4.34488C15.4129 4.43844 15.5806 4.6308 15.6255 4.92853C15.6717 5.23326 15.5666 5.4759 15.3333 5.65384C15.2459 5.72029 15.1528 5.78281 15.0547 5.82741C14.9302 5.88337 14.8919 5.9708 14.9063 6.10765C14.9171 6.20951 14.9084 6.314 14.9084 6.42024C14.9978 6.43904 15.0807 6.44603 15.1565 6.47358C15.4219 6.57107 15.5864 6.76693 15.6272 7.0651C15.6684 7.36283 15.5653 7.60198 15.3366 7.77554C15.2365 7.85118 15.1285 7.91675 15.0184 7.97534C14.9344 8.02037 14.8981 8.07633 14.9059 8.17863C14.9154 8.29755 14.908 8.41822 14.908 8.54763C14.9673 8.55812 15.0217 8.56468 15.0745 8.57736C15.3609 8.64687 15.5522 8.82699 15.6181 9.13478C15.6853 9.45043 15.5794 9.70619 15.3407 9.89637C15.2344 9.98119 15.1079 10.0367 15.0003 10.1198C14.9562 10.1543 14.9183 10.2247 14.9121 10.2824C14.8989 10.4114 14.908 10.5425 14.908 10.6711C15.0085 10.6942 15.1017 10.703 15.1858 10.7371C15.4417 10.842 15.5963 11.0418 15.63 11.3339C15.6626 11.6176 15.5658 11.8511 15.349 12.0185C15.2373 12.1046 15.1075 12.1645 14.9945 12.2489C14.9529 12.28 14.922 12.3451 14.9117 12.4002C14.8977 12.4736 14.9006 12.5536 14.9092 12.6288C15.0151 13.512 14.6764 14.2985 14.4274 15.1025C14.4039 15.1777 14.2869 15.266 14.2135 15.2656C14.1402 15.2651 14.0256 15.1772 14.0001 15.1007C13.8323 14.5971 13.6732 14.0891 13.5356 13.5754C13.4939 13.4197 13.529 13.2409 13.529 13.0687C13.4437 13.0555 13.3769 13.0533 13.3151 13.0337C13.0348 12.9458 12.8535 12.7561 12.8024 12.4435C12.7509 12.1278 12.8749 11.8891 13.1074 11.7081C13.2022 11.6342 13.3064 11.5721 13.4123 11.517C13.4993 11.472 13.529 11.4108 13.5224 11.3107C13.5146 11.1913 13.5207 11.0715 13.5207 10.9435C13.4795 10.936 13.4457 10.9277 13.4115 10.9238C13.1214 10.8888 12.884 10.6763 12.8139 10.3878C12.7397 10.0831 12.8457 9.77483 13.0868 9.5934C13.116 9.57153 13.1457 9.54618 13.1787 9.53394C13.5051 9.41589 13.5937 9.17106 13.4977 8.81781C13.4783 8.81344 13.4404 8.80339 13.402 8.79726C13.0905 8.74874 12.8671 8.53232 12.8069 8.21973C12.7463 7.90408 12.8675 7.61247 13.1337 7.43584C13.1511 7.42447 13.168 7.40961 13.1869 7.40305C13.5269 7.28894 13.5764 7.02444 13.5022 6.69349C13.4276 6.67687 13.3398 6.66769 13.2599 6.63709C12.9949 6.5361 12.8358 6.33368 12.7983 6.03682C12.7624 5.75264 12.8654 5.52443 13.0756 5.34955C13.0999 5.32944 13.1255 5.30714 13.1539 5.29753C13.4853 5.18648 13.5451 4.93815 13.5282 4.59627C13.5005 4.02923 13.5207 3.46 13.5207 2.89165C13.5207 2.83263 13.5207 2.77404 13.5207 2.70628C12.912 2.70628 12.3181 2.70628 11.7036 2.70628C11.7036 2.77054 11.7036 2.82825 11.7036 2.8864C11.7036 3.3507 11.7045 3.81544 11.7032 4.27974C11.7028 4.47079 11.6146 4.58446 11.4732 4.58446C11.3327 4.58402 11.242 4.46861 11.2416 4.27843C11.24 3.69914 11.2404 3.11986 11.2412 2.54058C11.2416 2.29225 11.322 2.20525 11.5573 2.20525C12.5856 2.20394 13.6139 2.20656 14.6422 2.20394C15.0885 2.20307 15.4232 1.86774 15.4326 1.42267C15.4421 0.961435 15.1046 0.599438 14.6504 0.595066C14.1262 0.590257 13.6015 0.593755 13.0769 0.593755C12.028 0.593755 10.9791 0.593755 9.93021 0.593755C9.86922 0.593755 9.80863 0.593755 9.73733 0.593755C9.73733 2.76136 9.73733 4.91586 9.73733 7.07909C10.234 7.07909 10.7252 7.07909 11.2404 7.07909C11.2404 7.02138 11.2404 6.96367 11.2404 6.9064C11.2404 6.43073 11.2383 5.9555 11.2416 5.48027C11.2429 5.31239 11.336 5.21096 11.4716 5.21009C11.6093 5.20921 11.6966 5.30933 11.7024 5.47721C11.704 5.52093 11.7028 5.56465 11.7028 5.60837C11.7028 6.77786 11.7028 7.94736 11.7028 9.11685C11.7028 9.80543 11.7032 10.494 11.7028 11.1826C11.7024 11.7313 11.432 12.0181 10.9119 12.0194C10.3259 12.0207 9.73981 12.0198 9.15334 12.0198C9.09193 12.0198 9.03052 12.0198 8.95469 12.0198C8.95469 12.2332 8.95469 12.4369 8.95469 12.6603C9.00497 12.6629 9.05937 12.6669 9.11377 12.6677C9.47356 12.6734 9.8346 12.6594 10.1927 12.6865C11.0158 12.7491 11.6822 13.5102 11.7007 14.3859C11.7201 15.3005 11.1073 16.0857 10.2772 16.199C10.0947 16.2239 9.90837 16.2252 9.72373 16.2256C8.99343 16.2287 8.26354 16.2274 7.53323 16.2256C7.47265 16.2256 7.39146 16.2335 7.35601 16.1976C7.29213 16.1334 7.22289 16.0416 7.21465 15.955C7.20352 15.8387 7.28801 15.7556 7.40588 15.739C7.45657 15.7316 7.5085 15.7351 7.56002 15.7351C8.3777 15.7347 9.19496 15.7399 10.0126 15.7333C10.7359 15.7277 11.2655 15.1322 11.2379 14.3715C11.2161 13.7743 10.752 13.244 10.1927 13.1784C10.1161 13.1692 10.039 13.1635 9.96195 13.1635C7.93094 13.1626 5.89994 13.1622 3.86893 13.1635C3.2598 13.164 2.7846 13.5242 2.63211 14.093C2.4108 14.918 2.9849 15.7242 3.81041 15.7329C4.62767 15.7412 5.44535 15.7347 6.26303 15.7351C6.31455 15.7351 6.36647 15.7316 6.41717 15.739C6.53298 15.7561 6.60304 15.8287 6.61417 15.9537C6.6253 16.0779 6.57337 16.167 6.46168 16.2068C6.41428 16.2234 6.36112 16.2265 6.31042 16.2265C5.48244 16.2278 4.65488 16.2335 3.82689 16.2256C2.53938 16.2138 1.72541 14.8244 2.31436 13.6344C2.6383 12.9795 3.17366 12.6739 3.8644 12.6686C4.19782 12.666 4.53123 12.6682 4.87496 12.6682C4.87496 12.4513 4.87496 12.2467 4.87496 12.0198C4.8119 12.0198 4.75255 12.0198 4.69279 12.0198C3.45886 12.0198 2.22451 12.0098 0.990989 12.0251C0.561544 12.0303 0.253266 11.8869 0.100776 11.4436C0.101188 10.1862 0.101188 8.9293 0.101188 7.67236ZM9.72703 7.58799C9.72703 7.66712 9.72703 7.72701 9.72703 7.78691C9.72703 8.6613 9.72703 9.53568 9.72703 10.4096C9.72703 10.6995 9.6615 10.7721 9.39402 10.7721C8.63322 10.7729 7.87242 10.7729 7.1112 10.7721C6.84167 10.7716 6.77531 10.6999 6.77531 10.4101C6.7749 9.53568 6.77531 8.6613 6.77531 7.78735C6.77531 7.72395 6.77531 7.66012 6.77531 7.57924C6.69948 7.57924 6.64425 7.57924 6.58862 7.57924C4.6965 7.57924 2.8048 7.57924 0.912683 7.57968C0.861579 7.57968 0.808825 7.57618 0.758957 7.58711C0.646444 7.61203 0.575144 7.68723 0.566489 7.81095C0.559071 7.91807 0.564841 8.02649 0.564841 8.1524C0.639025 8.1524 0.699609 8.1524 0.759781 8.1524C1.65947 8.1524 2.55917 8.15197 3.45886 8.1524C4.00535 8.15284 4.32269 8.48773 4.32393 9.06439C4.32475 9.39229 4.32475 9.72018 4.32393 10.0481C4.32228 10.6142 4.00205 10.9535 3.46792 10.9539C2.55793 10.9548 1.64793 10.9544 0.737938 10.9544C0.683536 10.9544 0.628722 10.9544 0.563604 10.9544C0.563604 11.0409 0.563604 11.1056 0.563604 11.1708C0.564016 11.4537 0.632019 11.5262 0.903204 11.5262C4.23985 11.5267 7.57651 11.5267 10.9132 11.5262C11.1736 11.5262 11.2404 11.4532 11.2404 11.176C11.2408 10.0341 11.2408 8.8917 11.24 7.74975C11.24 7.69728 11.2346 7.64482 11.2313 7.58755C10.7277 7.58799 10.2368 7.58799 9.72703 7.58799ZM5.96918 7.07516C7.07329 7.07516 8.16421 7.07516 9.25472 7.07516C9.25472 5.61274 9.25472 4.16301 9.25472 2.70715C7.83697 2.70715 6.42829 2.70715 5.00643 2.70715C5.32872 4.16956 5.64771 5.61755 5.96918 7.07516ZM7.24927 7.58886C7.24927 8.49035 7.24927 9.37742 7.24927 10.268C7.92558 10.268 8.59036 10.268 9.25266 10.268C9.25266 9.80937 9.25266 9.36387 9.25266 8.90962C9.0569 8.90962 8.87144 8.91662 8.68721 8.90613C8.61467 8.90219 8.51906 8.88208 8.47949 8.83005C8.43251 8.76885 8.39954 8.64906 8.4255 8.58435C8.45477 8.51178 8.55368 8.43439 8.62828 8.42696C8.83517 8.40554 9.04536 8.41953 9.25555 8.41953C9.25555 8.12879 9.25555 7.86298 9.25555 7.58886C8.58624 7.58886 7.92517 7.58886 7.24927 7.58886ZM0.571435 10.4555C0.60523 10.459 0.625013 10.463 0.645207 10.463C1.60054 10.4634 2.55587 10.4643 3.5112 10.4625C3.73705 10.4621 3.85822 10.3283 3.86069 10.0813C3.86399 9.75384 3.86193 9.42639 3.86151 9.09849C3.8611 8.75442 3.76013 8.64512 3.4399 8.64512C2.53567 8.64468 1.63186 8.64468 0.727634 8.64512C0.677766 8.64512 0.627898 8.64993 0.571023 8.65299C0.571435 9.25632 0.571435 9.84915 0.571435 10.4555ZM8.4696 12.029C7.4269 12.029 6.39656 12.029 5.35839 12.029C5.35839 12.2432 5.35839 12.447 5.35839 12.6586C6.39903 12.6586 7.42937 12.6586 8.4696 12.6586C8.4696 12.4496 8.4696 12.2493 8.4696 12.029ZM14.9739 6.90421C14.8919 6.9405 14.8326 6.9593 14.7802 6.99122C14.3265 7.26752 13.8735 7.54558 13.421 7.82494C13.2615 7.92331 13.2137 8.05272 13.2817 8.18563C13.3514 8.3216 13.4923 8.34608 13.6555 8.2464C14.1043 7.97184 14.5527 7.69641 15.0011 7.42054C15.0366 7.39868 15.0889 7.37988 15.0996 7.34709C15.1281 7.26096 15.1685 7.15866 15.147 7.0804C15.1277 7.00914 15.0333 6.96061 14.9739 6.90421ZM13.4482 10.4621C13.5442 10.4193 13.6131 10.3974 13.6736 10.3607C14.1146 10.0927 14.554 9.82248 14.9929 9.55186C15.037 9.52475 15.1021 9.49721 15.1128 9.45655C15.1367 9.36518 15.1685 9.24189 15.1297 9.17587C15.091 9.10986 14.9418 9.04034 14.8907 9.07007C14.3644 9.3748 13.8451 9.69439 13.3328 10.0262C13.2817 10.0594 13.2619 10.2055 13.2809 10.2846C13.2982 10.3541 13.3897 10.4035 13.4482 10.4621ZM13.2211 5.92053C13.2702 6.00534 13.2949 6.10327 13.3501 6.13038C13.4231 6.16623 13.5393 6.18284 13.6044 6.14481C14.0895 5.86107 14.5676 5.56378 15.0456 5.26649C15.173 5.18735 15.2084 5.05051 15.1483 4.93116C15.0856 4.80699 14.948 4.7659 14.8157 4.8459C14.3388 5.13445 13.8628 5.42475 13.3905 5.7216C13.3258 5.76183 13.285 5.84358 13.2211 5.92053ZM15.1759 11.4742C15.1788 11.2351 14.9892 11.1188 14.8214 11.2193C14.3392 11.5087 13.8603 11.8047 13.3823 12.102C13.2553 12.1811 13.2203 12.318 13.2809 12.4378C13.3439 12.5615 13.482 12.6026 13.6147 12.5222C14.0915 12.2332 14.5676 11.9429 15.039 11.6447C15.1058 11.6023 15.1462 11.5122 15.1759 11.4742ZM13.9951 2.70453C13.9951 3.40185 13.9951 4.0795 13.9951 4.77901C14.122 4.70119 14.2296 4.62818 14.3434 4.56829C14.4233 4.52588 14.4489 4.46992 14.4476 4.37636C14.4431 3.95621 14.4456 3.53607 14.4456 3.11593C14.4456 2.98127 14.4456 2.84662 14.4456 2.70453C14.2852 2.70453 14.1439 2.70453 13.9951 2.70453ZM14.4307 12.5912C14.2906 12.6765 14.1579 12.7552 14.0281 12.8391C14.0066 12.8531 13.9889 12.889 13.986 12.9165C13.9391 13.3638 14.047 13.7795 14.2111 14.1848C14.4534 13.682 14.4814 13.1522 14.4307 12.5912ZM14.439 10.4796C14.0079 10.6553 13.9222 10.7887 14.0083 11.1376C14.4571 10.9242 14.4625 10.9159 14.439 10.4796ZM13.998 9.00493C14.4085 8.86197 14.4996 8.72382 14.4246 8.35788C13.993 8.54282 13.9465 8.61321 13.998 9.00493ZM13.9955 6.89154C14.4443 6.67381 14.5148 6.56189 14.4184 6.23312C13.9761 6.44341 13.9551 6.47576 13.9955 6.89154Z" fill="#949292"/>
<path d="M0.101188 7.67236C0.247908 7.22424 0.554537 7.07865 0.985631 7.08303C2.41986 7.09658 3.85451 7.08827 5.28915 7.08827C5.35015 7.08827 5.41156 7.08827 5.49563 7.08827C5.41733 6.73021 5.34232 6.38832 5.26731 6.04644C5.01385 4.89356 4.75997 3.74068 4.50692 2.58736C4.44798 2.31892 4.53783 2.20525 4.81025 2.20525C6.22923 2.20438 7.64863 2.20481 9.06761 2.20481C9.12778 2.20481 9.18796 2.20481 9.26379 2.20481C9.26379 1.93244 9.26379 1.67712 9.26379 1.4218C9.26379 1.08297 9.26255 0.744149 9.2642 0.405324C9.26544 0.195471 9.34869 0.103223 9.54569 0.103223C11.2577 0.101911 12.9701 0.0975392 14.6821 0.105846C15.3073 0.108906 15.7949 0.583699 15.8872 1.24124C15.9717 1.84457 15.6016 2.44702 15.0287 2.64769C14.9822 2.66387 14.9142 2.71939 14.9138 2.75743C14.9059 3.26982 14.9088 3.78221 14.9088 4.2981C14.997 4.31471 15.0749 4.31952 15.1466 4.34488C15.4129 4.43844 15.5806 4.6308 15.6255 4.92853C15.6717 5.23326 15.5666 5.4759 15.3333 5.65384C15.2459 5.72029 15.1528 5.78281 15.0547 5.82741C14.9302 5.88337 14.8919 5.9708 14.9063 6.10765C14.9171 6.20951 14.9084 6.314 14.9084 6.42024C14.9978 6.43904 15.0807 6.44603 15.1565 6.47358C15.4219 6.57107 15.5864 6.76693 15.6272 7.0651C15.6684 7.36283 15.5653 7.60198 15.3366 7.77554C15.2365 7.85118 15.1285 7.91675 15.0184 7.97534C14.9344 8.02037 14.8981 8.07633 14.9059 8.17863C14.9154 8.29755 14.908 8.41822 14.908 8.54763C14.9673 8.55812 15.0217 8.56468 15.0745 8.57736C15.3609 8.64687 15.5522 8.82699 15.6181 9.13478C15.6853 9.45043 15.5794 9.70619 15.3407 9.89637C15.2344 9.98119 15.1079 10.0367 15.0003 10.1198C14.9562 10.1543 14.9183 10.2247 14.9121 10.2824C14.8989 10.4114 14.908 10.5425 14.908 10.6711C15.0085 10.6942 15.1017 10.703 15.1858 10.7371C15.4417 10.842 15.5963 11.0418 15.63 11.3339C15.6626 11.6176 15.5658 11.8511 15.349 12.0185C15.2373 12.1046 15.1075 12.1645 14.9945 12.2489C14.9529 12.28 14.922 12.3451 14.9117 12.4002C14.8977 12.4736 14.9006 12.5536 14.9092 12.6288C15.0151 13.512 14.6764 14.2985 14.4274 15.1025C14.4039 15.1777 14.2869 15.266 14.2135 15.2656C14.1402 15.2651 14.0256 15.1772 14.0001 15.1007C13.8323 14.5971 13.6732 14.0891 13.5356 13.5754C13.4939 13.4197 13.529 13.2409 13.529 13.0687C13.4437 13.0555 13.3769 13.0533 13.3151 13.0337C13.0348 12.9458 12.8535 12.7561 12.8024 12.4435C12.7509 12.1278 12.8749 11.8891 13.1074 11.7081C13.2022 11.6342 13.3064 11.5721 13.4123 11.517C13.4993 11.472 13.529 11.4108 13.5224 11.3107C13.5146 11.1913 13.5207 11.0715 13.5207 10.9435C13.4795 10.936 13.4457 10.9277 13.4115 10.9238C13.1214 10.8888 12.884 10.6763 12.8139 10.3878C12.7397 10.0831 12.8457 9.77483 13.0868 9.5934C13.116 9.57153 13.1457 9.54618 13.1787 9.53394C13.5051 9.41589 13.5937 9.17106 13.4977 8.81781C13.4783 8.81344 13.4404 8.80339 13.402 8.79726C13.0905 8.74874 12.8671 8.53232 12.8069 8.21973C12.7463 7.90408 12.8675 7.61247 13.1337 7.43584C13.1511 7.42447 13.168 7.40961 13.1869 7.40305C13.5269 7.28894 13.5764 7.02444 13.5022 6.69349C13.4276 6.67687 13.3398 6.66769 13.2599 6.63709C12.9949 6.5361 12.8358 6.33368 12.7983 6.03682C12.7624 5.75264 12.8654 5.52443 13.0756 5.34955C13.0999 5.32944 13.1255 5.30714 13.1539 5.29753C13.4853 5.18648 13.5451 4.93815 13.5282 4.59627C13.5005 4.02923 13.5207 3.46 13.5207 2.89165C13.5207 2.83263 13.5207 2.77404 13.5207 2.70628C12.912 2.70628 12.3181 2.70628 11.7036 2.70628C11.7036 2.77054 11.7036 2.82825 11.7036 2.8864C11.7036 3.3507 11.7045 3.81544 11.7032 4.27974C11.7028 4.47079 11.6146 4.58446 11.4732 4.58446C11.3327 4.58402 11.242 4.46861 11.2416 4.27843C11.24 3.69914 11.2404 3.11986 11.2412 2.54058C11.2416 2.29225 11.322 2.20525 11.5573 2.20525C12.5856 2.20394 13.6139 2.20656 14.6422 2.20394C15.0885 2.20307 15.4232 1.86774 15.4326 1.42267C15.4421 0.961435 15.1046 0.599438 14.6504 0.595066C14.1262 0.590257 13.6015 0.593755 13.0769 0.593755C12.028 0.593755 10.9791 0.593755 9.93021 0.593755C9.86922 0.593755 9.80863 0.593755 9.73733 0.593755C9.73733 2.76136 9.73733 4.91586 9.73733 7.07909C10.234 7.07909 10.7252 7.07909 11.2404 7.07909C11.2404 7.02138 11.2404 6.96367 11.2404 6.9064C11.2404 6.43073 11.2383 5.9555 11.2416 5.48027C11.2429 5.31239 11.336 5.21096 11.4716 5.21009C11.6093 5.20921 11.6966 5.30933 11.7024 5.47721C11.704 5.52093 11.7028 5.56465 11.7028 5.60837C11.7028 6.77786 11.7028 7.94736 11.7028 9.11685C11.7028 9.80543 11.7032 10.494 11.7028 11.1826C11.7024 11.7313 11.432 12.0181 10.9119 12.0194C10.3259 12.0207 9.73981 12.0198 9.15334 12.0198C9.09193 12.0198 9.03052 12.0198 8.95469 12.0198C8.95469 12.2332 8.95469 12.4369 8.95469 12.6603C9.00497 12.6629 9.05937 12.6669 9.11377 12.6677C9.47356 12.6734 9.8346 12.6594 10.1927 12.6865C11.0158 12.7491 11.6822 13.5102 11.7007 14.3859C11.7201 15.3005 11.1073 16.0857 10.2772 16.199C10.0947 16.2239 9.90837 16.2252 9.72373 16.2256C8.99343 16.2287 8.26354 16.2274 7.53323 16.2256C7.47265 16.2256 7.39146 16.2335 7.35601 16.1976C7.29213 16.1334 7.22289 16.0416 7.21465 15.955C7.20352 15.8387 7.28801 15.7556 7.40588 15.739C7.45657 15.7316 7.5085 15.7351 7.56002 15.7351C8.3777 15.7347 9.19496 15.7399 10.0126 15.7333C10.7359 15.7277 11.2655 15.1322 11.2379 14.3715C11.2161 13.7743 10.752 13.244 10.1927 13.1784C10.1161 13.1692 10.039 13.1635 9.96195 13.1635C7.93094 13.1626 5.89994 13.1622 3.86893 13.1635C3.2598 13.164 2.7846 13.5242 2.63211 14.093C2.4108 14.918 2.9849 15.7242 3.81041 15.7329C4.62767 15.7412 5.44535 15.7347 6.26303 15.7351C6.31455 15.7351 6.36647 15.7316 6.41717 15.739C6.53298 15.7561 6.60304 15.8287 6.61417 15.9537C6.6253 16.0779 6.57337 16.167 6.46168 16.2068C6.41428 16.2234 6.36112 16.2265 6.31042 16.2265C5.48244 16.2278 4.65488 16.2335 3.82689 16.2256C2.53938 16.2138 1.72541 14.8244 2.31436 13.6344C2.6383 12.9795 3.17366 12.6739 3.8644 12.6686C4.19782 12.666 4.53123 12.6682 4.87496 12.6682C4.87496 12.4513 4.87496 12.2467 4.87496 12.0198C4.8119 12.0198 4.75255 12.0198 4.69279 12.0198C3.45886 12.0198 2.22451 12.0098 0.990989 12.0251C0.561544 12.0303 0.253266 11.8869 0.100776 11.4436C0.101188 10.1862 0.101188 8.9293 0.101188 7.67236ZM9.72703 7.58799C9.72703 7.66712 9.72703 7.72701 9.72703 7.78691C9.72703 8.6613 9.72703 9.53568 9.72703 10.4096C9.72703 10.6995 9.6615 10.7721 9.39402 10.7721C8.63322 10.7729 7.87242 10.7729 7.1112 10.7721C6.84167 10.7716 6.77531 10.6999 6.77531 10.4101C6.7749 9.53568 6.77531 8.6613 6.77531 7.78735C6.77531 7.72395 6.77531 7.66012 6.77531 7.57924C6.69948 7.57924 6.64425 7.57924 6.58862 7.57924C4.6965 7.57924 2.8048 7.57924 0.912683 7.57968C0.861579 7.57968 0.808825 7.57618 0.758957 7.58711C0.646444 7.61203 0.575144 7.68723 0.566489 7.81095C0.559071 7.91807 0.564841 8.02649 0.564841 8.1524C0.639025 8.1524 0.699609 8.1524 0.759781 8.1524C1.65947 8.1524 2.55917 8.15197 3.45886 8.1524C4.00535 8.15284 4.32269 8.48773 4.32393 9.06439C4.32475 9.39229 4.32475 9.72018 4.32393 10.0481C4.32228 10.6142 4.00205 10.9535 3.46792 10.9539C2.55793 10.9548 1.64793 10.9544 0.737938 10.9544C0.683536 10.9544 0.628722 10.9544 0.563604 10.9544C0.563604 11.0409 0.563604 11.1056 0.563604 11.1708C0.564016 11.4537 0.632019 11.5262 0.903204 11.5262C4.23985 11.5267 7.57651 11.5267 10.9132 11.5262C11.1736 11.5262 11.2404 11.4532 11.2404 11.176C11.2408 10.0341 11.2408 8.8917 11.24 7.74975C11.24 7.69728 11.2346 7.64482 11.2313 7.58755C10.7277 7.58799 10.2368 7.58799 9.72703 7.58799ZM5.96918 7.07516C7.07329 7.07516 8.16421 7.07516 9.25472 7.07516C9.25472 5.61274 9.25472 4.16301 9.25472 2.70715C7.83697 2.70715 6.42829 2.70715 5.00643 2.70715C5.32872 4.16956 5.64771 5.61755 5.96918 7.07516ZM7.24927 7.58886C7.24927 8.49035 7.24927 9.37742 7.24927 10.268C7.92558 10.268 8.59036 10.268 9.25266 10.268C9.25266 9.80937 9.25266 9.36387 9.25266 8.90962C9.0569 8.90962 8.87144 8.91662 8.68721 8.90613C8.61467 8.90219 8.51906 8.88208 8.47949 8.83005C8.43251 8.76885 8.39954 8.64906 8.4255 8.58435C8.45477 8.51178 8.55368 8.43439 8.62828 8.42696C8.83517 8.40554 9.04536 8.41953 9.25555 8.41953C9.25555 8.12879 9.25555 7.86298 9.25555 7.58886C8.58624 7.58886 7.92517 7.58886 7.24927 7.58886ZM0.571435 10.4555C0.60523 10.459 0.625013 10.463 0.645207 10.463C1.60054 10.4634 2.55587 10.4643 3.5112 10.4625C3.73705 10.4621 3.85822 10.3283 3.86069 10.0813C3.86399 9.75384 3.86193 9.42639 3.86151 9.09849C3.8611 8.75442 3.76013 8.64512 3.4399 8.64512C2.53567 8.64468 1.63186 8.64468 0.727634 8.64512C0.677766 8.64512 0.627898 8.64993 0.571023 8.65299C0.571435 9.25632 0.571435 9.84915 0.571435 10.4555ZM8.4696 12.029C7.4269 12.029 6.39656 12.029 5.35839 12.029C5.35839 12.2432 5.35839 12.447 5.35839 12.6586C6.39903 12.6586 7.42937 12.6586 8.4696 12.6586C8.4696 12.4496 8.4696 12.2493 8.4696 12.029ZM14.9739 6.90421C14.8919 6.9405 14.8326 6.9593 14.7802 6.99122C14.3265 7.26752 13.8735 7.54558 13.421 7.82494C13.2615 7.92331 13.2137 8.05272 13.2817 8.18563C13.3514 8.3216 13.4923 8.34608 13.6555 8.2464C14.1043 7.97184 14.5527 7.69641 15.0011 7.42054C15.0366 7.39868 15.0889 7.37988 15.0996 7.34709C15.1281 7.26096 15.1685 7.15866 15.147 7.0804C15.1277 7.00914 15.0333 6.96061 14.9739 6.90421ZM13.4482 10.4621C13.5442 10.4193 13.6131 10.3974 13.6736 10.3607C14.1146 10.0927 14.554 9.82248 14.9929 9.55186C15.037 9.52475 15.1021 9.49721 15.1128 9.45655C15.1367 9.36518 15.1685 9.24189 15.1297 9.17587C15.091 9.10986 14.9418 9.04034 14.8907 9.07007C14.3644 9.3748 13.8451 9.69439 13.3328 10.0262C13.2817 10.0594 13.2619 10.2055 13.2809 10.2846C13.2982 10.3541 13.3897 10.4035 13.4482 10.4621ZM13.2211 5.92053C13.2702 6.00534 13.2949 6.10327 13.3501 6.13038C13.4231 6.16623 13.5393 6.18284 13.6044 6.14481C14.0895 5.86107 14.5676 5.56378 15.0456 5.26649C15.173 5.18735 15.2084 5.05051 15.1483 4.93116C15.0856 4.80699 14.948 4.7659 14.8157 4.8459C14.3388 5.13445 13.8628 5.42475 13.3905 5.7216C13.3258 5.76183 13.285 5.84358 13.2211 5.92053ZM15.1759 11.4742C15.1788 11.2351 14.9892 11.1188 14.8214 11.2193C14.3392 11.5087 13.8603 11.8047 13.3823 12.102C13.2553 12.1811 13.2203 12.318 13.2809 12.4378C13.3439 12.5615 13.482 12.6026 13.6147 12.5222C14.0915 12.2332 14.5676 11.9429 15.039 11.6447C15.1058 11.6023 15.1462 11.5122 15.1759 11.4742ZM13.9951 2.70453C13.9951 3.40185 13.9951 4.0795 13.9951 4.77901C14.122 4.70119 14.2296 4.62818 14.3434 4.56829C14.4233 4.52588 14.4489 4.46992 14.4476 4.37636C14.4431 3.95621 14.4456 3.53607 14.4456 3.11593C14.4456 2.98127 14.4456 2.84662 14.4456 2.70453C14.2852 2.70453 14.1439 2.70453 13.9951 2.70453ZM14.4307 12.5912C14.2906 12.6765 14.1579 12.7552 14.0281 12.8391C14.0066 12.8531 13.9889 12.889 13.986 12.9165C13.9391 13.3638 14.047 13.7795 14.2111 14.1848C14.4534 13.682 14.4814 13.1522 14.4307 12.5912ZM14.439 10.4796C14.0079 10.6553 13.9222 10.7887 14.0083 11.1376C14.4571 10.9242 14.4625 10.9159 14.439 10.4796ZM13.998 9.00493C14.4085 8.86197 14.4996 8.72382 14.4246 8.35788C13.993 8.54282 13.9465 8.61321 13.998 9.00493ZM13.9955 6.89154C14.4443 6.67381 14.5148 6.56189 14.4184 6.23312C13.9761 6.44341 13.9551 6.47576 13.9955 6.89154Z" stroke="#949292" stroke-width="0.2" mask="url(#path-1-outside-1_57_5395)"/>
<path d="M8.34002 6.10668C8.34002 5.89071 8.33837 5.70009 8.34043 5.50947C8.34249 5.31755 8.42863 5.20912 8.57411 5.21043C8.7196 5.21175 8.8012 5.31798 8.80203 5.51385C8.80326 5.78141 8.80409 6.04897 8.80161 6.31654C8.79997 6.50846 8.71877 6.59678 8.53702 6.59765C7.87431 6.60027 7.21118 6.59809 6.54847 6.59896C6.40257 6.5994 6.32097 6.5242 6.288 6.37556C6.07863 5.4251 5.86638 4.47551 5.65949 3.52418C5.61457 3.31826 5.71101 3.18928 5.90966 3.18841C6.78833 3.18491 7.667 3.18535 8.54568 3.18841C8.71589 3.18885 8.79914 3.28503 8.8012 3.46603C8.80409 3.7502 8.8045 4.03394 8.80079 4.31812C8.79873 4.47988 8.6994 4.58787 8.5667 4.58481C8.44099 4.58175 8.34455 4.47726 8.34085 4.3238C8.3359 4.11701 8.33961 3.90978 8.33961 3.69075C7.61796 3.69075 6.9062 3.69075 6.18373 3.69075C6.18703 3.72703 6.18661 3.76332 6.19403 3.79742C6.3527 4.51967 6.51055 5.24191 6.67458 5.96285C6.68695 6.01662 6.74382 6.09969 6.78132 6.10056C7.29485 6.1093 7.80754 6.10668 8.34002 6.10668Z" fill="#949292"/>
<path d="M2.90685 9.55426C2.90685 9.45065 2.90231 9.3466 2.90808 9.24342C2.91591 9.10439 2.98763 9.02176 3.12034 9.00996C3.24605 8.99903 3.3561 9.08778 3.36311 9.22768C3.37341 9.4454 3.37382 9.66444 3.36269 9.88172C3.35569 10.0221 3.24482 10.1121 3.11993 10.0994C2.98845 10.0863 2.91591 10.0037 2.90808 9.86467C2.90231 9.76193 2.90685 9.65788 2.90685 9.55426Z" fill="#949292"/>
<path d="M1.51922 9.5545C1.51922 9.65812 1.52458 9.76217 1.51799 9.86535C1.50892 10.0066 1.41247 10.101 1.28841 10.101C1.16435 10.101 1.0642 10.0061 1.06008 9.86491C1.05348 9.65768 1.05348 9.45002 1.06008 9.24279C1.06461 9.1007 1.16353 9.00758 1.28883 9.00758C1.41412 9.00758 1.50933 9.1007 1.51799 9.24322C1.52417 9.34684 1.51922 9.45089 1.51922 9.5545Z" fill="#949292"/>
<path d="M1.98244 9.54237C1.98244 9.44401 1.9779 9.34564 1.98326 9.2477C1.99109 9.10343 2.08094 9.009 2.20748 9.00856C2.34184 9.00856 2.42963 9.08857 2.43746 9.22235C2.45065 9.44488 2.45189 9.67003 2.43581 9.89257C2.42633 10.0255 2.33401 10.1068 2.20047 10.0989C2.06858 10.0911 1.99357 10.0071 1.98368 9.86939C1.97667 9.76141 1.98244 9.65167 1.98244 9.54237Z" fill="#949292"/>
</svg>
