<svg width="15" height="15" viewBox="0 0 15 15" fill="none" xmlns="http://www.w3.org/2000/svg">
<path d="M10.3709 8.1149e-05H4.6729C4.49091 -0.00383233 4.3401 0.13429 4.33601 0.308621C4.33591 0.313357 4.33591 0.318092 4.33601 0.322828V1.27696C4.34329 1.35997 4.38243 1.43748 4.44587 1.49444L6.10105 3.07999C6.16055 3.14076 6.24143 3.17825 6.32808 3.18523H7.17766V3.57108C6.5477 3.71473 6.10442 4.25568 6.10837 4.87601C6.10837 5.6277 6.74448 6.23708 7.52921 6.23708C8.31394 6.23708 8.95005 5.62773 8.95005 4.87601C8.94256 4.70083 8.79604 4.56044 8.61316 4.5533C8.43114 4.55327 8.28355 4.69458 8.28352 4.86894C8.28352 4.87131 8.28355 4.87368 8.28359 4.87605C8.28359 5.27512 7.94584 5.59866 7.52924 5.59866C7.11264 5.59866 6.77489 5.27512 6.77489 4.87605C6.77489 4.48858 7.10279 4.17448 7.50727 4.17448C7.68926 4.17836 7.84004 4.04017 7.84409 3.86588C7.84416 3.86351 7.84416 3.86114 7.84416 3.85877V3.15717H8.68639C8.78299 3.15586 8.8751 3.11804 8.94273 3.05194L10.5979 1.46639C10.6614 1.40939 10.7005 1.33191 10.7078 1.24891V0.322828C10.7003 0.147642 10.5538 0.00725038 10.3709 8.1149e-05Z" fill="#C1C0C0"/>
<path d="M14.6925 8.18824C14.6825 8.18758 14.6725 8.18738 14.6624 8.18761H13.3148L9.5357 5.64789C9.37596 5.56611 9.17839 5.60106 9.05964 5.73208C8.95503 5.87001 8.98696 6.06305 9.13094 6.16326C9.13637 6.16704 9.14189 6.17062 9.14752 6.17408L12.1723 8.18761H2.87831L5.87376 6.16707C6.01575 6.06042 6.04479 5.86554 5.93967 5.72508C5.82988 5.59488 5.63818 5.55933 5.48558 5.64089L1.73575 8.18761H0.329574C0.149544 8.19827 0.00717509 8.3377 0 8.51032V14.6772C0.00717509 14.8498 0.149544 14.9892 0.329574 14.9999H14.6624C14.8443 15.0038 14.9952 14.8657 14.9992 14.6914C14.9993 14.6866 14.9993 14.6819 14.9992 14.6772V8.52437C15.0115 8.3504 14.8741 8.19991 14.6925 8.18824ZM2.73182 12.5795C2.73182 12.75 2.58753 12.8882 2.40956 12.8882C2.23159 12.8882 2.0873 12.75 2.0873 12.5795V10.6291C2.0873 10.4586 2.23159 10.3204 2.40956 10.3204C2.58753 10.3204 2.73182 10.4586 2.73182 10.6291V12.5795ZM4.78249 12.5795C4.78249 12.75 4.6382 12.8882 4.46023 12.8882C4.28226 12.8882 4.13797 12.75 4.13797 12.5795V10.6291C4.12585 10.4551 4.26321 10.3047 4.44485 10.293C4.4524 10.2925 4.45999 10.2923 4.46754 10.2923C4.64218 10.3033 4.77902 10.4404 4.78246 10.608V12.5795H4.78249ZM6.84051 12.5795C6.83663 12.7562 6.68805 12.8985 6.50362 12.9022C6.32586 12.9101 6.17501 12.7785 6.16674 12.6082C6.16625 12.5986 6.16625 12.589 6.16674 12.5795V10.6291C6.1667 10.4547 6.31422 10.3133 6.49624 10.3133C6.49871 10.3133 6.50118 10.3133 6.50366 10.3134C6.68386 10.3202 6.82942 10.4566 6.84054 10.6291V12.5795H6.84051ZM8.87652 12.5795C8.87264 12.7562 8.72406 12.8985 8.53963 12.9022C8.35356 12.9022 8.20275 12.7577 8.20275 12.5795V10.6291C8.21044 10.4552 8.35795 10.3169 8.53963 10.3134C8.71983 10.3203 8.8654 10.4566 8.87652 10.6291V12.5795ZM10.6289 12.9462C10.4448 12.9724 10.2734 12.8507 10.2461 12.6744C10.2412 12.6429 10.2412 12.611 10.2461 12.5795V10.6291C10.2572 10.4566 10.4028 10.3203 10.583 10.3134C10.7632 10.3203 10.9087 10.4567 10.9198 10.6291L10.9125 12.5795C10.9399 12.7558 10.8129 12.92 10.6289 12.9462ZM12.9486 12.5795C12.9569 12.7498 12.8195 12.8943 12.6417 12.9022C12.6317 12.9027 12.6217 12.9027 12.6117 12.9022C12.4273 12.8985 12.2787 12.7562 12.2748 12.5795V10.6291C12.2859 10.4566 12.4315 10.3203 12.6117 10.3134C12.7937 10.3095 12.9445 10.4477 12.9485 10.622C12.9486 10.6244 12.9486 10.6267 12.9486 10.6291V12.5795H12.9486Z" fill="#C1C0C0"/>
</svg>
