<svg width="14" height="17" viewBox="0 0 14 17" fill="none" xmlns="http://www.w3.org/2000/svg">
<path d="M6.97802 17C5.71889 15.9827 4.55185 14.8674 3.48901 13.6659C1.89404 11.8614 8.83169e-07 9.17407 8.83169e-07 6.61325C-0.00141466 3.93871 1.6989 1.52695 4.3075 0.503392C6.91612 -0.520174 9.91886 0.0462241 11.9145 1.93827C13.2268 3.17582 13.9619 4.85921 13.956 6.61325C13.956 9.17407 12.062 11.8614 10.467 13.6659C9.40418 14.8674 8.23716 15.9827 6.97802 17ZM6.97802 3.7805C5.90959 3.7805 4.92232 4.32043 4.38811 5.19688C3.85389 6.07333 3.85389 7.15318 4.38811 8.02964C4.92232 8.90609 5.90959 9.44601 6.97802 9.44601C8.62972 9.44601 9.9686 8.17769 9.9686 6.61325C9.9686 5.04876 8.62972 3.7805 6.97802 3.7805Z" fill="#EC1C24"/>
</svg>
