<svg width="17" height="17" viewBox="0 0 17 17" fill="none" xmlns="http://www.w3.org/2000/svg">
<path d="M12.75 3.40001H17V5.10001H15.3V16.15C15.3 16.3755 15.2105 16.5917 15.0511 16.7511C14.8917 16.9105 14.6755 17 14.45 17H2.55001C2.32457 17 2.10837 16.9105 1.94896 16.7511C1.78956 16.5917 1.7 16.3755 1.7 16.15V5.10001H0V3.40001H4.25001V0.850002C4.25001 0.624568 4.33956 0.408366 4.49897 0.24896C4.65838 0.0895535 4.87458 0 5.10001 0H11.9C12.1255 0 12.3417 0.0895535 12.5011 0.24896C12.6605 0.408366 12.75 0.624568 12.75 0.850002V3.40001ZM13.6 5.10001H3.40001V15.3H13.6V5.10001ZM5.95001 1.7V3.40001H11.05V1.7H5.95001Z" fill="#001018"/>
</svg>
