<svg width="14" height="14" viewBox="0 0 14 14" fill="none" xmlns="http://www.w3.org/2000/svg">
<path d="M11.885 0H0V11.6667H11.885V0ZM10.9708 10.5H0.91423V1.16667H10.9708V10.5Z" fill="#949292"/>
<path d="M12.7994 2.9165V12.8332H2.28577V13.9998H13.7136V2.9165H12.7994Z" fill="#949292"/>
<path d="M5.94252 8.69369C7.07673 8.69369 7.99953 7.41266 7.99953 5.83806C7.99953 4.26346 7.07673 2.98242 5.94252 2.98242C4.8083 2.98242 3.8855 4.26342 3.8855 5.83806C3.8855 7.41269 4.8083 8.69369 5.94252 8.69369ZM5.94252 4.14909C6.57265 4.14909 7.0853 4.90677 7.0853 5.83806C7.0853 6.76935 6.57265 7.52703 5.94252 7.52703C5.31238 7.52703 4.79973 6.76935 4.79973 5.83806C4.79973 4.90677 5.31238 4.14909 5.94252 4.14909Z" fill="#949292"/>
<path d="M2.74284 2.625H1.82861V9.04167H2.74284V2.625Z" fill="#949292"/>
<path d="M10.0566 2.625H9.14233V9.04167H10.0566V2.625Z" fill="#949292"/>
</svg>
