<svg width="15" height="18" viewBox="0 0 15 18" fill="none" xmlns="http://www.w3.org/2000/svg">
<path d="M7.13708 17.8964L7.12397 17.8929C6.74137 17.7907 6.49736 17.5471 6.29588 17.2667L6.29587 17.2667C5.22897 15.7812 4.15935 14.2974 3.08964 12.8134C2.59614 12.1289 2.10261 11.4442 1.60933 10.7594C0.928435 9.81431 0.4356 8.79359 0.207274 7.66752L0.207273 7.66751C0.0143669 6.71596 0.0989658 5.78106 0.389168 4.86539M7.13708 17.8964L0.389168 4.86539M7.13708 17.8964H7.15065M7.13708 17.8964H7.15065M0.389168 4.86539C0.819958 3.50561 1.65258 2.38764 2.86155 1.51073M0.389168 4.86539L2.86155 1.51073M2.86155 1.51073C3.75629 0.86144 4.76478 0.419644 5.88755 0.231906L2.86155 1.51073ZM7.15065 17.8964H7.15123H7.15182H7.15241H7.15299H7.15358H7.15416H7.15475H7.15534H7.15592H7.15651H7.15709H7.15768H7.15827H7.15885H7.15944H7.16002H7.16061H7.1612H7.16178H7.16237H7.16296H7.16354H7.16413H7.16471H7.1653H7.16589H7.16647H7.16706H7.16764H7.16823H7.16882H7.1694H7.16999H7.17057H7.17116H7.17175H7.17233H7.17292H7.1735H7.17409H7.17468H7.17526H7.17585H7.17643H7.17702H7.17761H7.17819H7.17878H7.17937H7.17995H7.18054H7.18112H7.18171H7.1823H7.18288H7.18347H7.18405H7.18464H7.18523H7.18581H7.1864H7.18698H7.18757H7.18816H7.18874H7.18933H7.18992H7.1905H7.19109H7.19167H7.19226H7.19285H7.19343H7.19402H7.1946H7.19519H7.19578H7.19636H7.19695H7.19754H7.19812H7.19871H7.19929H7.19988H7.20047H7.20105H7.20164H7.20222H7.20281H7.2034H7.20398H7.20457H7.20516H7.20574H7.20633H7.20691H7.2075H7.20809H7.20867H7.20926H7.20984H7.21043H7.21102H7.2116H7.21219H7.21278H7.21336H7.21395H7.21453H7.21512H7.21571H7.21629H7.21688H7.21747H7.21805H7.21864H7.21922H7.21981H7.2204H7.22098H7.22157H7.22216H7.22274H7.22333H7.22392H7.2245H7.22509H7.22567H7.22626H7.22685H7.22743H7.22802H7.22861H7.22919H7.22978H7.23036H7.23095H7.23154H7.23212H7.23271H7.2333H7.23388H7.23447H7.23506H7.23564H7.23623H7.23681H7.2374H7.23799H7.23857H7.23916H7.23975H7.24033H7.24092H7.24151H7.24209H7.24268H7.24326H7.24385H7.24444H7.24502H7.24561H7.2462H7.24678H7.24737H7.24796H7.24854H7.24913H7.24972H7.2503H7.25089H7.25148H7.25206H7.25265H7.25323H7.25382H7.25441H7.25499H7.25558H7.25617H7.25675H7.25734H7.25793H7.25851H7.2591H7.25969H7.26027H7.26086H7.26145H7.26203H7.26262H7.26321H7.26379H7.26438H7.26497H7.26555H7.26614H7.26673H7.26731H7.2679H7.26849H7.26907H7.26966H7.27025H7.27083H7.27142H7.27201H7.27259H7.27318H7.27377H7.27435H7.27494H7.27553H7.27611H7.2767H7.27729H7.27787H7.27846H7.27905H7.27963H7.28022H7.28081H7.28139H7.28198H7.28257H7.28315H7.28374H7.28433H7.28491H7.2855H7.28609H7.28667H7.28726H7.28785H7.28844H7.28902H7.28961H7.2902H7.29078H7.29137H7.29196H7.29254H7.29313H7.29372H7.2943H7.29489H7.29548H7.29607H7.29665H7.29724H7.29783H7.29841H7.299H7.29959H7.30017H7.30076H7.30135H7.30194H7.30252H7.30311H7.3037H7.30428H7.30487H7.30546H7.30605H7.30663H7.30722H7.30781H7.30839H7.30898H7.30957H7.31016H7.31074H7.31133H7.31192H7.3125H7.31309H7.31368H7.31426H7.31485H7.31544H7.31603H7.31661H7.3172H7.31779H7.31838H7.31896H7.31955H7.32014H7.32072H7.32131H7.3219H7.32249H7.32307H7.32366H7.32425H7.32484H7.32542H7.32601H7.3266H7.32719H7.32777H7.32836H7.32895H7.32954H7.33012H7.33071H7.3313H7.33188H7.33247H7.33306H7.33365H7.33423H7.33482H7.33541H7.336H7.33658H7.33717H7.33776H7.33835H7.33893H7.33952H7.34011H7.3407H7.34129H7.34187H7.34246H7.34305H7.34364H7.34422H7.34481H7.3454H7.34599H7.34657H7.34716H7.34775H7.34834H7.34892H7.34951H7.3501H7.35069H7.35128H7.35186H7.35245H7.35304H7.35363H7.35421H7.3548H7.35539H7.35598H7.35657H7.35715H7.35774H7.35833H7.35892H7.35951H7.36009H7.36068H7.36127H7.36186H7.36245H7.36303H7.36362H7.36421H7.3648H7.36539H7.36597H7.36656H7.36715H7.36774H7.36833H7.36891H7.3695H7.37009H7.37068H7.37127H7.37185H7.37244H7.37303H7.37362H7.37421H7.37479H7.37538H7.37597H7.37656H7.37715H7.37774H7.37832H7.37891H7.3795H7.38009H7.38068H7.38127H7.38185H7.38244H7.38303H7.38362H7.38421H7.3848H7.38538H7.38597H7.38656H7.38715H7.38774H7.38833H7.38892H7.3895H7.39009H7.39068H7.39127H7.39186H7.39245H7.39303H7.39362H7.39421H7.3948H7.39539H7.39598H7.39657H7.39715H7.39774H7.39833H7.39892H7.39951H7.4001H7.40069H7.40128H7.40186H7.40245H7.40304H7.40363H7.40422H7.40481H7.4054H7.40599H7.40657H7.40716H7.40775H7.40834H7.40893H7.40952H7.41011H7.4107H7.41129H7.41187H7.41246H7.41305H7.41364H7.41423H7.41482H7.41541H7.416H7.41659H7.41718H7.41777H7.41835H7.41894H7.41953H7.42012H7.42071H7.4213H7.42189H7.42248H7.42307H7.42366H7.42425H7.42484H7.42542H7.42601H7.4266H7.42719H7.42778H7.42837H7.42896H7.42955H7.43014H7.43073H7.43132H7.43191H7.4325H7.43309H7.43368H7.43426H7.43485H7.43544H7.43603H7.43662H7.43721H7.4378H7.43839H7.43898H7.43957H7.44016H7.44075H7.44134H7.44193H7.44252H7.44311H7.4437H7.44429H7.44488H7.44547H7.44606H7.44665H7.44724H7.44783H7.44842H7.44901H7.4496H7.45019H7.45078H7.45137H7.46494L7.47805 17.8929C7.86049 17.7908 8.10519 17.5479 8.30621 17.2672C8.78928 16.5928 9.27574 15.9187 9.76231 15.2444C10.3032 14.4948 10.8442 13.745 11.3808 12.9947C11.551 12.7566 11.7235 12.519 11.8962 12.281C12.4294 11.5461 12.9652 10.8077 13.4474 10.0424C14.2764 8.72733 14.6729 7.29732 14.4216 5.75153L14.4216 5.75151M7.15065 17.8964L14.4216 5.75151M14.4216 5.75151C14.1851 4.29849 13.5113 3.0367 12.3642 2.01926C10.5502 0.410025 8.36945 -0.18356 5.88757 0.231902L14.4216 5.75151ZM6.44166 1.13106C8.69498 0.880628 10.5759 1.54334 12.0366 3.11807C13.0898 4.25399 13.5619 5.59186 13.4274 7.0816C13.346 7.98198 13.0397 8.83551 12.5192 9.60174C11.8559 10.5781 11.1664 11.5392 10.476 12.5014C10.3052 12.7395 10.1344 12.9777 9.96386 13.2161L9.96384 13.2161C9.3067 14.1358 8.64451 15.0525 7.9822 15.9694C7.78947 16.2362 7.59672 16.503 7.40409 16.7699L7.40374 16.7704C7.37329 16.8131 7.34116 16.8529 7.30153 16.9016C7.26921 16.8641 7.24417 16.8347 7.22047 16.8015L7.22016 16.8011C6.87522 16.3228 6.53019 15.8447 6.18518 15.3666C4.94188 13.6437 3.69879 11.9211 2.46048 10.1951C1.81554 9.29606 1.35641 8.33188 1.19344 7.26562L1.19344 7.26561C1.07354 6.48146 1.17832 5.71301 1.4468 4.96262C1.86627 3.79049 2.63179 2.84078 3.73027 2.11844L3.67343 2.03201L3.7302 2.11848C4.54436 1.58401 5.44744 1.24168 6.44166 1.13106ZM6.44166 1.13106L6.43023 1.02824L6.44166 1.13106Z" fill="#949292" stroke="#949292" stroke-width="0.2"/>
<path d="M4.48174 6.66748C4.45242 8.05548 5.69924 9.24529 7.25182 9.27026C8.81963 9.29522 10.0974 8.14582 10.1219 6.72347L4.48174 6.66748ZM4.48174 6.66748C4.51176 5.25696 5.79022 4.10061 7.32301 4.12553M4.48174 6.66748L7.32301 4.12553M7.32301 4.12553C8.89804 4.15111 10.1443 5.32744 10.1219 6.72336L7.32301 4.12553ZM7.30797 10.2391L7.308 10.2391L11.0556 6.68862L11.159 6.6883C11.159 6.68829 11.159 6.68828 11.159 6.68826C11.1529 4.73396 9.41465 3.15796 7.3039 3.15551C5.18768 3.15306 3.43996 4.74069 3.44266 6.70073C3.44537 8.66538 5.1884 10.2446 7.30797 10.2391Z" fill="#949292" stroke="#949292" stroke-width="0.2"/>
</svg>
