<svg width="42" height="28" viewBox="0 0 42 28" fill="none" xmlns="http://www.w3.org/2000/svg">
<path fill-rule="evenodd" clip-rule="evenodd" d="M0 13.9311C1.98545 5.98257 10.633 0 21 0C31.367 0 40.0146 5.98257 42 13.9311C40.0146 21.8796 31.367 27.8622 21 27.8622C10.633 27.8622 1.98545 21.8796 0 13.9311ZM21 22.6381C26.799 22.6381 31.5 18.7398 31.5 13.9311C31.5 9.1224 26.799 5.22417 21 5.22417C15.201 5.22417 10.5 9.1224 10.5 13.9311C10.5 18.7398 15.201 22.6381 21 22.6381ZM21 19.1553C24.4794 19.1553 27.3 16.8163 27.3 13.9311C27.3 11.0459 24.4794 8.70694 21 8.70694C17.5206 8.70694 14.7 11.0459 14.7 13.9311C14.7 16.8163 17.5206 19.1553 21 19.1553Z" fill="#ACBAC3"/>
</svg>
