<svg width="622" height="442" viewBox="0 0 622 442" fill="none" xmlns="http://www.w3.org/2000/svg">
<mask id="path-1-inside-1_118_5313" fill="white">
<path fill-rule="evenodd" clip-rule="evenodd" d="M0 10C0 4.47715 4.47715 0 10 0H612C617.523 0 622 4.47715 622 10V111.798C621.692 111.792 621.383 111.79 621.072 111.79C607.229 111.79 596.006 116.987 596.006 123.399C596.006 129.81 607.229 135.008 621.072 135.008C621.383 135.008 621.692 135.005 622 135V432C622 437.523 617.523 442 612 442H9.99999C4.47715 442 0 437.523 0 432V135C0.308102 135.005 0.617623 135.008 0.928465 135.008C14.7719 135.008 25.9941 129.81 25.9941 123.399C25.9941 116.987 14.7719 111.79 0.928465 111.79C0.617623 111.79 0.308102 111.792 0 111.798V10Z"/>
</mask>
<path fill-rule="evenodd" clip-rule="evenodd" d="M0 10C0 4.47715 4.47715 0 10 0H612C617.523 0 622 4.47715 622 10V111.798C621.692 111.792 621.383 111.79 621.072 111.79C607.229 111.79 596.006 116.987 596.006 123.399C596.006 129.81 607.229 135.008 621.072 135.008C621.383 135.008 621.692 135.005 622 135V432C622 437.523 617.523 442 612 442H9.99999C4.47715 442 0 437.523 0 432V135C0.308102 135.005 0.617623 135.008 0.928465 135.008C14.7719 135.008 25.9941 129.81 25.9941 123.399C25.9941 116.987 14.7719 111.79 0.928465 111.79C0.617623 111.79 0.308102 111.792 0 111.798V10Z" fill="#F6F7FB"/>
<path d="M622 111.798L621.992 112.298L622.5 112.306V111.798H622ZM622 135H622.5V134.491L621.992 134.5L622 135ZM0 135L0.00844283 134.5L-0.5 134.491V135H0ZM0 111.798H-0.5V112.306L0.00843046 112.298L0 111.798ZM10 -0.5C8.57721 -0.5 7.21932 -0.216736 5.98059 0.296942L6.36365 1.22067C7.48308 0.756459 8.71096 0.5 10 0.5V-0.5ZM0.296942 5.98059C-0.216736 7.21932 -0.5 8.57721 -0.5 10H0.5C0.5 8.71096 0.756459 7.48308 1.22067 6.36365L0.296942 5.98059ZM-0.5 10V13.6356H0.5V10H-0.5ZM-0.5 20.9069V28.1782H0.5V20.9069H-0.5ZM-0.5 35.4494V42.7207H0.5V35.4494H-0.5ZM-0.5 49.9919V57.2632H0.5V49.9919H-0.5ZM-0.5 64.5345V71.8057H0.5V64.5345H-0.5ZM-0.5 79.077V86.3483H0.5V79.077H-0.5ZM-0.5 93.6195V100.891H0.5V93.6195H-0.5ZM-0.5 108.162V111.798H0.5V108.162H-0.5ZM0.00843046 112.298C0.0850051 112.296 0.161669 112.295 0.23842 112.294L0.225784 111.294C0.147624 111.295 0.0695519 111.296 -0.00843046 111.298L0.00843046 112.298ZM0.698441 112.29C0.775033 112.29 0.851708 112.29 0.928465 112.29V111.29C0.850305 111.29 0.772228 111.29 0.694235 111.29L0.698441 112.29ZM0.928465 112.29C2.18135 112.29 3.41231 112.333 4.61482 112.416L4.68358 111.418C3.45806 111.334 2.20416 111.29 0.928465 111.29V112.29ZM11.9007 113.471C14.5125 114.068 16.8549 114.871 18.8303 115.827L19.2663 114.927C17.2117 113.932 14.796 113.107 12.1236 112.496L11.9007 113.471ZM24.4324 120.196C25.1316 121.227 25.4941 122.301 25.4941 123.399H26.4941C26.4941 122.069 26.0524 120.803 25.2599 119.635L24.4324 120.196ZM25.4941 123.399C25.4941 124.497 25.1316 125.571 24.4324 126.602L25.2599 127.163C26.0524 125.995 26.4941 124.728 26.4941 123.399H25.4941ZM18.8303 130.97C16.8549 131.927 14.5125 132.729 11.9007 133.327L12.1236 134.301C14.796 133.69 17.2117 132.865 19.2663 131.87L18.8303 130.97ZM4.61482 134.382C3.41231 134.465 2.18135 134.508 0.928465 134.508V135.508C2.20416 135.508 3.45806 135.464 4.68358 135.38L4.61482 134.382ZM0.928465 134.508C0.851704 134.508 0.775026 134.508 0.698433 134.507L0.694244 135.507C0.772235 135.508 0.85031 135.508 0.928465 135.508V134.508ZM0.238417 134.503C0.16167 134.502 0.0850112 134.501 0.00844283 134.5L-0.00844283 135.5C0.0695458 135.501 0.147623 135.502 0.225786 135.503L0.238417 134.503ZM-0.5 135V138.536H0.5V135H-0.5ZM-0.5 145.607V152.678H0.5V145.607H-0.5ZM-0.5 159.75V166.821H0.5V159.75H-0.5ZM-0.5 173.893V180.964H0.5V173.893H-0.5ZM-0.5 188.036V195.107H0.5V188.036H-0.5ZM-0.5 202.179V209.25H0.5V202.179H-0.5ZM-0.5 216.321V223.393H0.5V216.321H-0.5ZM-0.5 230.464V237.536H0.5V230.464H-0.5ZM-0.5 244.607V251.678H0.5V244.607H-0.5ZM-0.5 258.75V265.821H0.5V258.75H-0.5ZM-0.5 272.893V279.964H0.5V272.893H-0.5ZM-0.5 287.036V294.107H0.5V287.036H-0.5ZM-0.5 301.178V308.25H0.5V301.178H-0.5ZM-0.5 315.321V322.393H0.5V315.321H-0.5ZM-0.5 329.464V336.536H0.5V329.464H-0.5ZM-0.5 343.607V350.678H0.5V343.607H-0.5ZM-0.5 357.75V364.821H0.5V357.75H-0.5ZM-0.5 371.893V378.964H0.5V371.893H-0.5ZM-0.5 386.036V393.107H0.5V386.036H-0.5ZM-0.5 400.178V407.25H0.5V400.178H-0.5ZM-0.5 414.321V421.393H0.5V414.321H-0.5ZM-0.5 428.464V432H0.5V428.464H-0.5ZM-0.5 432C-0.5 433.423 -0.216737 434.781 0.29694 436.019L1.22067 435.636C0.756459 434.517 0.5 433.289 0.5 432H-0.5ZM5.98059 441.703C7.21931 442.217 8.5772 442.5 9.99999 442.5V441.5C8.71095 441.5 7.48307 441.244 6.36364 440.779L5.98059 441.703ZM9.99999 442.5H13.5V441.5H9.99999V442.5ZM20.5 442.5H27.5V441.5H20.5V442.5ZM34.5 442.5H41.5V441.5H34.5V442.5ZM48.5 442.5H55.5V441.5H48.5V442.5ZM62.5 442.5H69.5V441.5H62.5V442.5ZM76.5 442.5H83.5V441.5H76.5V442.5ZM90.5 442.5H97.5V441.5H90.5V442.5ZM104.5 442.5H111.5V441.5H104.5V442.5ZM118.5 442.5H125.5V441.5H118.5V442.5ZM132.5 442.5H139.5V441.5H132.5V442.5ZM146.5 442.5H153.5V441.5H146.5V442.5ZM160.5 442.5H167.5V441.5H160.5V442.5ZM174.5 442.5H181.5V441.5H174.5V442.5ZM188.5 442.5H195.5V441.5H188.5V442.5ZM202.5 442.5H209.5V441.5H202.5V442.5ZM216.5 442.5H223.5V441.5H216.5V442.5ZM230.5 442.5H237.5V441.5H230.5V442.5ZM244.5 442.5H251.5V441.5H244.5V442.5ZM258.5 442.5H265.5V441.5H258.5V442.5ZM272.5 442.5H279.5V441.5H272.5V442.5ZM286.5 442.5H293.5V441.5H286.5V442.5ZM300.5 442.5H307.5V441.5H300.5V442.5ZM314.5 442.5H321.5V441.5H314.5V442.5ZM328.5 442.5H335.5V441.5H328.5V442.5ZM342.5 442.5H349.5V441.5H342.5V442.5ZM356.5 442.5H363.5V441.5H356.5V442.5ZM370.5 442.5H377.5V441.5H370.5V442.5ZM384.5 442.5H391.5V441.5H384.5V442.5ZM398.5 442.5H405.5V441.5H398.5V442.5ZM412.5 442.5H419.5V441.5H412.5V442.5ZM426.5 442.5H433.5V441.5H426.5V442.5ZM440.5 442.5H447.5V441.5H440.5V442.5ZM454.5 442.5H461.5V441.5H454.5V442.5ZM468.5 442.5H475.5V441.5H468.5V442.5ZM482.5 442.5H489.5V441.5H482.5V442.5ZM496.5 442.5H503.5V441.5H496.5V442.5ZM510.5 442.5H517.5V441.5H510.5V442.5ZM524.5 442.5H531.5V441.5H524.5V442.5ZM538.5 442.5H545.5V441.5H538.5V442.5ZM552.5 442.5H559.5V441.5H552.5V442.5ZM566.5 442.5H573.5V441.5H566.5V442.5ZM580.5 442.5H587.5V441.5H580.5V442.5ZM594.5 442.5H601.5V441.5H594.5V442.5ZM608.5 442.5H612V441.5H608.5V442.5ZM612 442.5C613.423 442.5 614.781 442.217 616.019 441.703L615.636 440.779C614.517 441.244 613.289 441.5 612 441.5V442.5ZM621.703 436.019C622.217 434.781 622.5 433.423 622.5 432H621.5C621.5 433.289 621.244 434.517 620.779 435.636L621.703 436.019ZM622.5 432V428.464H621.5V432H622.5ZM622.5 421.393V414.321H621.5V421.393H622.5ZM622.5 407.25V400.179H621.5V407.25H622.5ZM622.5 393.107V386.036H621.5V393.107H622.5ZM622.5 378.964V371.893H621.5V378.964H622.5ZM622.5 364.821V357.75H621.5V364.821H622.5ZM622.5 350.679V343.607H621.5V350.679H622.5ZM622.5 336.536V329.464H621.5V336.536H622.5ZM622.5 322.393V315.321H621.5V322.393H622.5ZM622.5 308.25V301.179H621.5V308.25H622.5ZM622.5 294.107V287.036H621.5V294.107H622.5ZM622.5 279.964V272.893H621.5V279.964H622.5ZM622.5 265.821V258.75H621.5V265.821H622.5ZM622.5 251.679V244.607H621.5V251.679H622.5ZM622.5 237.536V230.464H621.5V237.536H622.5ZM622.5 223.393V216.321H621.5V223.393H622.5ZM622.5 209.25V202.179H621.5V209.25H622.5ZM622.5 195.107V188.036H621.5V195.107H622.5ZM622.5 180.964V173.893H621.5V180.964H622.5ZM622.5 166.821V159.75H621.5V166.821H622.5ZM622.5 152.679V145.607H621.5V152.679H622.5ZM622.5 138.536V135H621.5V138.536H622.5ZM621.992 134.5C621.915 134.501 621.838 134.502 621.762 134.503L621.774 135.503C621.852 135.502 621.93 135.501 622.008 135.5L621.992 134.5ZM621.302 134.507C621.225 134.508 621.149 134.508 621.072 134.508V135.508C621.15 135.508 621.228 135.508 621.306 135.507L621.302 134.507ZM621.072 134.508C619.819 134.508 618.588 134.465 617.386 134.382L617.317 135.38C618.542 135.464 619.796 135.508 621.072 135.508V134.508ZM610.1 133.327C607.488 132.729 605.146 131.927 603.17 130.97L602.734 131.87C604.789 132.865 607.205 133.69 609.877 134.301L610.1 133.327ZM597.568 126.602C596.869 125.571 596.506 124.497 596.506 123.399H595.506C595.506 124.728 595.948 125.995 596.741 127.163L597.568 126.602ZM596.506 123.399C596.506 122.301 596.869 121.227 597.568 120.196L596.741 119.635C595.948 120.803 595.506 122.069 595.506 123.399H596.506ZM603.17 115.827C605.146 114.871 607.488 114.068 610.1 113.471L609.877 112.496C607.205 113.107 604.789 113.932 602.734 114.927L603.17 115.827ZM617.386 112.416C618.588 112.333 619.819 112.29 621.072 112.29V111.29C619.796 111.29 618.542 111.334 617.317 111.418L617.386 112.416ZM621.072 112.29C621.149 112.29 621.225 112.29 621.302 112.29L621.306 111.29C621.228 111.29 621.15 111.29 621.072 111.29V112.29ZM621.762 112.294C621.838 112.295 621.915 112.296 621.992 112.298L622.008 111.298C621.93 111.296 621.852 111.295 621.774 111.294L621.762 112.294ZM622.5 111.798V108.162H621.5V111.798H622.5ZM622.5 100.891V93.6195H621.5V100.891H622.5ZM622.5 86.3482V79.077H621.5V86.3482H622.5ZM622.5 71.8057V64.5345H621.5V71.8057H622.5ZM622.5 57.2632V49.9919H621.5V57.2632H622.5ZM622.5 42.7207V35.4494H621.5V42.7207H622.5ZM622.5 28.1782V20.9069H621.5V28.1782H622.5ZM622.5 13.6356V10H621.5V13.6356H622.5ZM622.5 10C622.5 8.57721 622.217 7.21932 621.703 5.9806L620.779 6.36365C621.244 7.48308 621.5 8.71096 621.5 10H622.5ZM616.019 0.296945C614.781 -0.216735 613.423 -0.5 612 -0.5V0.5C613.289 0.5 614.517 0.75646 615.636 1.22067L616.019 0.296945ZM612 -0.5H608.5V0.5H612V-0.5ZM601.5 -0.5H594.5V0.5H601.5V-0.5ZM587.5 -0.5H580.5V0.5H587.5V-0.5ZM573.5 -0.5H566.5V0.5H573.5V-0.5ZM559.5 -0.5H552.5V0.5H559.5V-0.5ZM545.5 -0.5H538.5V0.5H545.5V-0.5ZM531.5 -0.5H524.5V0.5H531.5V-0.5ZM517.5 -0.5H510.5V0.5H517.5V-0.5ZM503.5 -0.5H496.5V0.5H503.5V-0.5ZM489.5 -0.5H482.5V0.5H489.5V-0.5ZM475.5 -0.5H468.5V0.5H475.5V-0.5ZM461.5 -0.5H454.5V0.5H461.5V-0.5ZM447.5 -0.5H440.5V0.5H447.5V-0.5ZM433.5 -0.5H426.5V0.5H433.5V-0.5ZM419.5 -0.5H412.5V0.5H419.5V-0.5ZM405.5 -0.5H398.5V0.5H405.5V-0.5ZM391.5 -0.5H384.5V0.5H391.5V-0.5ZM377.5 -0.5H370.5V0.5H377.5V-0.5ZM363.5 -0.5H356.5V0.5H363.5V-0.5ZM349.5 -0.5H342.5V0.5H349.5V-0.5ZM335.5 -0.5H328.5V0.5H335.5V-0.5ZM321.5 -0.5H314.5V0.5H321.5V-0.5ZM307.5 -0.5H300.5V0.5H307.5V-0.5ZM293.5 -0.5H286.5V0.5H293.5V-0.5ZM279.5 -0.5H272.5V0.5H279.5V-0.5ZM265.5 -0.5H258.5V0.5H265.5V-0.5ZM251.5 -0.5H244.5V0.5H251.5V-0.5ZM237.5 -0.5H230.5V0.5H237.5V-0.5ZM223.5 -0.5H216.5V0.5H223.5V-0.5ZM209.5 -0.5H202.5V0.5H209.5V-0.5ZM195.5 -0.5H188.5V0.5H195.5V-0.5ZM181.5 -0.5H174.5V0.5H181.5V-0.5ZM167.5 -0.5H160.5V0.5H167.5V-0.5ZM153.5 -0.5H146.5V0.5H153.5V-0.5ZM139.5 -0.5H132.5V0.5H139.5V-0.5ZM125.5 -0.5H118.5V0.5H125.5V-0.5ZM111.5 -0.5H104.5V0.5H111.5V-0.5ZM97.5 -0.5H90.5V0.5H97.5V-0.5ZM83.5 -0.5H76.5V0.5H83.5V-0.5ZM69.5 -0.5H62.5V0.5H69.5V-0.5ZM55.5 -0.5H48.5V0.5H55.5V-0.5ZM41.5 -0.5H34.5V0.5H41.5V-0.5ZM27.5 -0.5H20.5V0.5H27.5V-0.5ZM13.5 -0.5H10V0.5H13.5V-0.5ZM622 111.798L621.983 112.798L623 112.815V111.798H622ZM622 135H623V133.983L621.983 134L622 135ZM0 135L0.0168857 134L-1 133.983V135H0ZM0 111.798H-1V112.815L0.0168609 112.798L0 111.798ZM10 -1C8.51034 -1 7.08744 -0.703334 5.78907 -0.164921L6.55518 1.68253C7.61496 1.24306 8.77783 1 10 1V-1ZM-0.164921 5.78907C-0.703334 7.08744 -1 8.51033 -1 10H1C1 8.77783 1.24306 7.61496 1.68253 6.55518L-0.164921 5.78907ZM-1 10V13.6356H1V10H-1ZM-1 20.9069V28.1782H1V20.9069H-1ZM-1 35.4494V42.7207H1V35.4494H-1ZM-1 49.9919V57.2632H1V49.9919H-1ZM-1 64.5345V71.8057H1V64.5345H-1ZM-1 79.077V86.3483H1V79.077H-1ZM-1 93.6195V100.891H1V93.6195H-1ZM-1 108.162V111.798H1V108.162H-1ZM0.0168609 112.798C0.0927316 112.796 0.168691 112.795 0.244738 112.794L0.219465 110.794C0.140601 110.795 0.0618253 110.796 -0.0168609 110.798L0.0168609 112.798ZM0.700545 112.79C0.776435 112.79 0.852409 112.79 0.928465 112.79V110.79C0.849604 110.79 0.770826 110.79 0.692132 110.79L0.700545 112.79ZM0.928465 112.79C2.16994 112.79 3.38943 112.832 4.58044 112.914L4.71795 110.919C3.48093 110.834 2.21557 110.79 0.928465 110.79V112.79ZM11.7892 113.958C14.3708 114.549 16.6764 115.34 18.6124 116.277L19.4843 114.478C17.3902 113.463 14.9377 112.627 12.2351 112.009L11.7892 113.958ZM24.0186 120.477C24.6712 121.439 24.9941 122.417 24.9941 123.399H26.9941C26.9941 121.953 26.5128 120.591 25.6737 119.354L24.0186 120.477ZM24.9941 123.399C24.9941 124.381 24.6712 125.359 24.0186 126.321L25.6737 127.444C26.5128 126.206 26.9941 124.844 26.9941 123.399H24.9941ZM18.6124 130.52C16.6764 131.458 14.3708 132.249 11.7892 132.839L12.2351 134.789C14.9377 134.171 17.3902 133.334 19.4843 132.32L18.6124 130.52ZM4.58044 133.883C3.38944 133.965 2.16994 134.008 0.928465 134.008V136.008C2.21557 136.008 3.48093 135.964 4.71796 135.878L4.58044 133.883ZM0.928465 134.008C0.852401 134.008 0.776422 134.008 0.700528 134.007L0.692149 136.007C0.77084 136.008 0.849612 136.008 0.928465 136.008V134.008ZM0.244733 134.003C0.168694 134.002 0.0927439 134.001 0.0168857 134L-0.0168857 136C0.061813 136.001 0.140599 136.002 0.21947 136.003L0.244733 134.003ZM-1 135V138.536H1V135H-1ZM-1 145.607V152.678H1V145.607H-1ZM-1 159.75V166.821H1V159.75H-1ZM-1 173.893V180.964H1V173.893H-1ZM-1 188.036V195.107H1V188.036H-1ZM-1 202.179V209.25H1V202.179H-1ZM-1 216.321V223.393H1V216.321H-1ZM-1 230.464V237.536H1V230.464H-1ZM-1 244.607V251.678H1V244.607H-1ZM-1 258.75V265.821H1V258.75H-1ZM-1 272.893V279.964H1V272.893H-1ZM-1 287.036V294.107H1V287.036H-1ZM-1 301.178V308.25H1V301.178H-1ZM-1 315.321V322.393H1V315.321H-1ZM-1 329.464V336.536H1V329.464H-1ZM-1 343.607V350.678H1V343.607H-1ZM-1 357.75V364.821H1V357.75H-1ZM-1 371.893V378.964H1V371.893H-1ZM-1 386.036V393.107H1V386.036H-1ZM-1 400.178V407.25H1V400.178H-1ZM-1 414.321V421.393H1V414.321H-1ZM-1 428.464V432H1V428.464H-1ZM-1 432C-1 433.49 -0.703335 434.913 -0.164923 436.211L1.68253 435.445C1.24306 434.385 1 433.222 1 432H-1ZM5.78906 442.165C7.08743 442.703 8.51033 443 9.99999 443V441C8.77783 441 7.61495 440.757 6.55517 440.317L5.78906 442.165ZM9.99999 443H13.5V441H9.99999V443ZM20.5 443H27.5V441H20.5V443ZM34.5 443H41.5V441H34.5V443ZM48.5 443H55.5V441H48.5V443ZM62.5 443H69.5V441H62.5V443ZM76.5 443H83.5V441H76.5V443ZM90.5 443H97.5V441H90.5V443ZM104.5 443H111.5V441H104.5V443ZM118.5 443H125.5V441H118.5V443ZM132.5 443H139.5V441H132.5V443ZM146.5 443H153.5V441H146.5V443ZM160.5 443H167.5V441H160.5V443ZM174.5 443H181.5V441H174.5V443ZM188.5 443H195.5V441H188.5V443ZM202.5 443H209.5V441H202.5V443ZM216.5 443H223.5V441H216.5V443ZM230.5 443H237.5V441H230.5V443ZM244.5 443H251.5V441H244.5V443ZM258.5 443H265.5V441H258.5V443ZM272.5 443H279.5V441H272.5V443ZM286.5 443H293.5V441H286.5V443ZM300.5 443H307.5V441H300.5V443ZM314.5 443H321.5V441H314.5V443ZM328.5 443H335.5V441H328.5V443ZM342.5 443H349.5V441H342.5V443ZM356.5 443H363.5V441H356.5V443ZM370.5 443H377.5V441H370.5V443ZM384.5 443H391.5V441H384.5V443ZM398.5 443H405.5V441H398.5V443ZM412.5 443H419.5V441H412.5V443ZM426.5 443H433.5V441H426.5V443ZM440.5 443H447.5V441H440.5V443ZM454.5 443H461.5V441H454.5V443ZM468.5 443H475.5V441H468.5V443ZM482.5 443H489.5V441H482.5V443ZM496.5 443H503.5V441H496.5V443ZM510.5 443H517.5V441H510.5V443ZM524.5 443H531.5V441H524.5V443ZM538.5 443H545.5V441H538.5V443ZM552.5 443H559.5V441H552.5V443ZM566.5 443H573.5V441H566.5V443ZM580.5 443H587.5V441H580.5V443ZM594.5 443H601.5V441H594.5V443ZM608.5 443H612V441H608.5V443ZM612 443C613.49 443 614.913 442.703 616.211 442.165L615.445 440.317C614.385 440.757 613.222 441 612 441V443ZM622.165 436.211C622.703 434.913 623 433.49 623 432H621C621 433.222 620.757 434.385 620.317 435.445L622.165 436.211ZM623 432V428.464H621V432H623ZM623 421.393V414.321H621V421.393H623ZM623 407.25V400.179H621V407.25H623ZM623 393.107V386.036H621V393.107H623ZM623 378.964V371.893H621V378.964H623ZM623 364.821V357.75H621V364.821H623ZM623 350.679V343.607H621V350.679H623ZM623 336.536V329.464H621V336.536H623ZM623 322.393V315.321H621V322.393H623ZM623 308.25V301.179H621V308.25H623ZM623 294.107V287.036H621V294.107H623ZM623 279.964V272.893H621V279.964H623ZM623 265.821V258.75H621V265.821H623ZM623 251.679V244.607H621V251.679H623ZM623 237.536V230.464H621V237.536H623ZM623 223.393V216.321H621V223.393H623ZM623 209.25V202.179H621V209.25H623ZM623 195.107V188.036H621V195.107H623ZM623 180.964V173.893H621V180.964H623ZM623 166.821V159.75H621V166.821H623ZM623 152.679V145.607H621V152.679H623ZM623 138.536V135H621V138.536H623ZM621.983 134C621.907 134.001 621.831 134.002 621.755 134.003L621.781 136.003C621.859 136.002 621.938 136.001 622.017 136L621.983 134ZM621.3 134.007C621.224 134.008 621.148 134.008 621.072 134.008V136.008C621.151 136.008 621.23 136.008 621.308 136.007L621.3 134.007ZM621.072 134.008C619.831 134.008 618.611 133.965 617.42 133.883L617.283 135.878C618.52 135.964 619.785 136.008 621.072 136.008V134.008ZM610.211 132.839C607.63 132.249 605.324 131.458 603.388 130.52L602.516 132.32C604.61 133.334 607.063 134.171 609.765 134.789L610.211 132.839ZM597.982 126.321C597.329 125.359 597.006 124.381 597.006 123.399H595.006C595.006 124.844 595.488 126.206 596.327 127.444L597.982 126.321ZM597.006 123.399C597.006 122.417 597.329 121.439 597.982 120.477L596.327 119.354C595.488 120.591 595.006 121.953 595.006 123.399H597.006ZM603.388 116.277C605.324 115.34 607.63 114.549 610.211 113.958L609.765 112.009C607.063 112.627 604.61 113.463 602.516 114.478L603.388 116.277ZM617.42 112.914C618.611 112.832 619.831 112.79 621.072 112.79V110.79C619.785 110.79 618.52 110.834 617.283 110.919L617.42 112.914ZM621.072 112.79C621.148 112.79 621.224 112.79 621.3 112.79L621.308 110.79C621.23 110.79 621.151 110.79 621.072 110.79V112.79ZM621.755 112.794C621.831 112.795 621.907 112.796 621.983 112.798L622.017 110.798C621.938 110.796 621.859 110.795 621.781 110.794L621.755 112.794ZM623 111.798V108.162H621V111.798H623ZM623 100.891V93.6195H621V100.891H623ZM623 86.3482V79.077H621V86.3482H623ZM623 71.8057V64.5345H621V71.8057H623ZM623 57.2632V49.9919H621V57.2632H623ZM623 42.7207V35.4494H621V42.7207H623ZM623 28.1782V20.9069H621V28.1782H623ZM623 13.6356V10H621V13.6356H623ZM623 10C623 8.51034 622.703 7.08744 622.165 5.78907L620.317 6.55518C620.757 7.61496 621 8.77783 621 10H623ZM616.211 -0.164918C614.913 -0.703333 613.49 -1 612 -1V1C613.222 1 614.385 1.24306 615.445 1.68253L616.211 -0.164918ZM612 -1H608.5V1H612V-1ZM601.5 -1H594.5V1H601.5V-1ZM587.5 -1H580.5V1H587.5V-1ZM573.5 -1H566.5V1H573.5V-1ZM559.5 -1H552.5V1H559.5V-1ZM545.5 -1H538.5V1H545.5V-1ZM531.5 -1H524.5V1H531.5V-1ZM517.5 -1H510.5V1H517.5V-1ZM503.5 -1H496.5V1H503.5V-1ZM489.5 -1H482.5V1H489.5V-1ZM475.5 -1H468.5V1H475.5V-1ZM461.5 -1H454.5V1H461.5V-1ZM447.5 -1H440.5V1H447.5V-1ZM433.5 -1H426.5V1H433.5V-1ZM419.5 -1H412.5V1H419.5V-1ZM405.5 -1H398.5V1H405.5V-1ZM391.5 -1H384.5V1H391.5V-1ZM377.5 -1H370.5V1H377.5V-1ZM363.5 -1H356.5V1H363.5V-1ZM349.5 -1H342.5V1H349.5V-1ZM335.5 -1H328.5V1H335.5V-1ZM321.5 -1H314.5V1H321.5V-1ZM307.5 -1H300.5V1H307.5V-1ZM293.5 -1H286.5V1H293.5V-1ZM279.5 -1H272.5V1H279.5V-1ZM265.5 -1H258.5V1H265.5V-1ZM251.5 -1H244.5V1H251.5V-1ZM237.5 -1H230.5V1H237.5V-1ZM223.5 -1H216.5V1H223.5V-1ZM209.5 -1H202.5V1H209.5V-1ZM195.5 -1H188.5V1H195.5V-1ZM181.5 -1H174.5V1H181.5V-1ZM167.5 -1H160.5V1H167.5V-1ZM153.5 -1H146.5V1H153.5V-1ZM139.5 -1H132.5V1H139.5V-1ZM125.5 -1H118.5V1H125.5V-1ZM111.5 -1H104.5V1H111.5V-1ZM97.5 -1H90.5V1H97.5V-1ZM83.5 -1H76.5V1H83.5V-1ZM69.5 -1H62.5V1H69.5V-1ZM55.5 -1H48.5V1H55.5V-1ZM41.5 -1H34.5V1H41.5V-1ZM27.5 -1H20.5V1H27.5V-1ZM13.5 -1H10V1H13.5V-1Z" fill="#3E61A8" mask="url(#path-1-inside-1_118_5313)"/>
</svg>
