<svg width="18" height="11" viewBox="0 0 18 11" fill="none" xmlns="http://www.w3.org/2000/svg">
<path d="M1.35006 0C1.08467 0 0.841084 0.072516 0.6328 0.191851L8.33899 6.31208C8.74628 6.63569 9.23891 6.63569 9.64684 6.31208L17.3671 0.185639C17.1596 0.0674439 16.9138 0.000212447 16.6498 0.000212447H1.34994L1.35006 0ZM0.0773755 0.831355C0.030604 0.956116 0 1.08815 0 1.22777V9.41342C0 10.0936 0.602032 10.6413 1.35007 10.6413H16.65C17.3978 10.6413 18 10.0938 18 9.41342V1.22777C18 1.08817 17.9694 0.956127 17.9227 0.831208L10.2374 6.93207C9.52138 7.50006 8.46417 7.49451 7.74835 6.92579L0.0773755 0.831355Z" fill="#EC1C24"/>
</svg>
